<mxfile host="app.diagrams.net" agent="Mozilla/5.0 (Windows NT 10.0; Win64; x64) AppleWebKit/537.36 (KHTML, like Gecko) Chrome/136.0.0.0 Safari/537.36" version="27.0.9">
  <diagram name="A2 Форма 1" id="mu3jdlEi9F9O-sjriKfU">
    <mxGraphModel dx="4084" dy="877" grid="1" gridSize="10" guides="1" tooltips="1" connect="1" arrows="1" fold="1" page="1" pageScale="1" pageWidth="827" pageHeight="1169" math="0" shadow="0">
      <root>
        <mxCell id="0" />
        <mxCell id="1" parent="0" />
        <mxCell id="6nzBXGpNkiS_T46_idPR-1" value="" style="rounded=0;whiteSpace=wrap;html=1;strokeWidth=2;fillColor=none;fontSize=8;labelBackgroundColor=none;" vertex="1" parent="1">
          <mxGeometry x="-2224.000210923152" y="29.26844055237453" width="2194.7906553227326" height="1598.4048501178852" as="geometry" />
        </mxCell>
        <object placeholder="BlueprintName" placeholders="1" id="6nzBXGpNkiS_T46_idPR-2">
          <mxCell style="rounded=0;whiteSpace=wrap;html=1;strokeWidth=2;fillColor=none;fontFamily=GOSTRUS Type A;fontSize=8;rotation=-180;labelBackgroundColor=none;" vertex="1" parent="1">
            <mxGeometry x="-2224.800210923152" y="29.26844055237454" width="389.1992617689702" height="77.97089929269114" as="geometry" />
          </mxCell>
        </object>
        <mxCell id="6nzBXGpNkiS_T46_idPR-3" value="" style="rounded=0;whiteSpace=wrap;html=1;strokeWidth=1;fillColor=none;fontFamily=GOSTRUS Type A;fontSize=8;labelBackgroundColor=none;" vertex="1" parent="1">
          <mxGeometry x="-1058.5299313532491" y="1321.3477265072418" width="1028.5980489608498" height="306.3142472212866" as="geometry" />
        </mxCell>
        <mxCell id="6nzBXGpNkiS_T46_idPR-4" value="" style="rounded=0;whiteSpace=wrap;html=1;strokeWidth=1;fillColor=none;fontFamily=GOSTRUS Type A;fontSize=8;labelBackgroundColor=none;" vertex="1" parent="1">
          <mxGeometry x="-1058.5158089517913" y="1321.3477265072418" width="38.919926176897015" height="27.84674974738969" as="geometry" />
        </mxCell>
        <mxCell id="6nzBXGpNkiS_T46_idPR-5" value="" style="rounded=0;whiteSpace=wrap;html=1;strokeWidth=1;fillColor=none;fontFamily=GOSTRUS Type A;fontSize=8;labelBackgroundColor=none;" vertex="1" parent="1">
          <mxGeometry x="-1058.5200456722284" y="1349.197305490064" width="38.919926176897015" height="27.84674974738969" as="geometry" />
        </mxCell>
        <mxCell id="6nzBXGpNkiS_T46_idPR-6" value="" style="rounded=0;whiteSpace=wrap;html=1;strokeWidth=1;fillColor=none;fontFamily=GOSTRUS Type A;fontSize=8;labelBackgroundColor=none;" vertex="1" parent="1">
          <mxGeometry x="-1058.505923270771" y="1377.0369821488716" width="38.919926176897015" height="27.84674974738969" as="geometry" />
        </mxCell>
        <mxCell id="6nzBXGpNkiS_T46_idPR-7" value="" style="rounded=0;whiteSpace=wrap;html=1;strokeWidth=1;fillColor=none;fontFamily=GOSTRUS Type A;fontSize=8;labelBackgroundColor=none;" vertex="1" parent="1">
          <mxGeometry x="-1058.5101599912084" y="1404.8865611316944" width="38.919926176897015" height="27.84674974738969" as="geometry" />
        </mxCell>
        <mxCell id="6nzBXGpNkiS_T46_idPR-8" value="Изм" style="rounded=0;whiteSpace=wrap;html=1;strokeWidth=1;fillColor=none;fontFamily=GOSTRUS Type A;fontStyle=2;fontSize=8;labelBackgroundColor=none;" vertex="1" parent="1">
          <mxGeometry x="-1058.5143967116455" y="1432.7361401145167" width="38.919926176897015" height="27.84674974738969" as="geometry" />
        </mxCell>
        <mxCell id="6nzBXGpNkiS_T46_idPR-9" value="" style="rounded=0;whiteSpace=wrap;html=1;strokeWidth=1;fillColor=none;fontFamily=GOSTRUS Type A;fontSize=8;labelBackgroundColor=none;" vertex="1" parent="1">
          <mxGeometry x="-1019.5845848537283" y="1321.3434826540924" width="55.599894538424316" height="27.84674974738969" as="geometry" />
        </mxCell>
        <mxCell id="6nzBXGpNkiS_T46_idPR-10" value="" style="rounded=0;whiteSpace=wrap;html=1;strokeWidth=1;fillColor=none;fontFamily=GOSTRUS Type A;fontSize=8;labelBackgroundColor=none;" vertex="1" parent="1">
          <mxGeometry x="-1019.5888215741652" y="1349.193061636915" width="55.599894538424316" height="27.84674974738969" as="geometry" />
        </mxCell>
        <mxCell id="6nzBXGpNkiS_T46_idPR-11" value="" style="rounded=0;whiteSpace=wrap;html=1;strokeWidth=1;fillColor=none;fontFamily=GOSTRUS Type A;fontSize=8;labelBackgroundColor=none;" vertex="1" parent="1">
          <mxGeometry x="-1019.5746991727076" y="1377.0327382957223" width="55.599894538424316" height="27.84674974738969" as="geometry" />
        </mxCell>
        <mxCell id="6nzBXGpNkiS_T46_idPR-12" value="" style="rounded=0;whiteSpace=wrap;html=1;strokeWidth=1;fillColor=none;fontFamily=GOSTRUS Type A;fontSize=8;labelBackgroundColor=none;" vertex="1" parent="1">
          <mxGeometry x="-1019.578935893145" y="1404.882317278545" width="55.599894538424316" height="27.84674974738969" as="geometry" />
        </mxCell>
        <mxCell id="6nzBXGpNkiS_T46_idPR-13" value="Лист" style="rounded=0;whiteSpace=wrap;html=1;strokeWidth=1;fillColor=none;fontFamily=GOSTRUS Type A;fontStyle=2;fontSize=8;labelBackgroundColor=none;" vertex="1" parent="1">
          <mxGeometry x="-1019.5831726135823" y="1432.7318962613676" width="55.599894538424316" height="27.84674974738969" as="geometry" />
        </mxCell>
        <mxCell id="6nzBXGpNkiS_T46_idPR-14" value="" style="rounded=0;whiteSpace=wrap;html=1;strokeWidth=1;fillColor=none;fontFamily=GOSTRUS Type A;fontSize=8;labelBackgroundColor=none;" vertex="1" parent="1">
          <mxGeometry x="-963.9748046342836" y="1321.3533849781072" width="127.87975743837592" height="27.84674974738969" as="geometry" />
        </mxCell>
        <mxCell id="6nzBXGpNkiS_T46_idPR-15" value="" style="rounded=0;whiteSpace=wrap;html=1;strokeWidth=1;fillColor=none;fontFamily=GOSTRUS Type A;fontSize=8;labelBackgroundColor=none;" vertex="1" parent="1">
          <mxGeometry x="-963.9790413547205" y="1349.2029639609298" width="127.87975743837592" height="27.84674974738969" as="geometry" />
        </mxCell>
        <mxCell id="6nzBXGpNkiS_T46_idPR-16" value="" style="rounded=0;whiteSpace=wrap;html=1;strokeWidth=1;fillColor=none;fontFamily=GOSTRUS Type A;fontSize=8;labelBackgroundColor=none;" vertex="1" parent="1">
          <mxGeometry x="-963.9649189532629" y="1377.0426406197373" width="127.87975743837592" height="27.84674974738969" as="geometry" />
        </mxCell>
        <mxCell id="6nzBXGpNkiS_T46_idPR-17" value="" style="rounded=0;whiteSpace=wrap;html=1;strokeWidth=1;fillColor=none;fontFamily=GOSTRUS Type A;fontSize=8;labelBackgroundColor=none;" vertex="1" parent="1">
          <mxGeometry x="-963.9691556737005" y="1404.89221960256" width="127.87975743837592" height="27.84674974738969" as="geometry" />
        </mxCell>
        <mxCell id="6nzBXGpNkiS_T46_idPR-18" value="№ докум." style="rounded=0;whiteSpace=wrap;html=1;strokeWidth=1;fillColor=none;fontFamily=GOSTRUS Type A;fontStyle=2;fontSize=8;labelBackgroundColor=none;" vertex="1" parent="1">
          <mxGeometry x="-963.9733923941376" y="1432.7417985853824" width="127.87975743837592" height="27.84674974738969" as="geometry" />
        </mxCell>
        <mxCell id="6nzBXGpNkiS_T46_idPR-19" value="" style="rounded=0;whiteSpace=wrap;html=1;strokeWidth=1;fillColor=none;fontFamily=GOSTRUS Type A;fontSize=8;labelBackgroundColor=none;" vertex="1" parent="1">
          <mxGeometry x="-836.0865737550346" y="1321.349141124958" width="83.39984180763648" height="27.84674974738969" as="geometry" />
        </mxCell>
        <mxCell id="6nzBXGpNkiS_T46_idPR-20" value="" style="rounded=0;whiteSpace=wrap;html=1;strokeWidth=1;fillColor=none;fontFamily=GOSTRUS Type A;fontSize=8;labelBackgroundColor=none;" vertex="1" parent="1">
          <mxGeometry x="-836.0908104754717" y="1349.1987201077804" width="83.39984180763648" height="27.84674974738969" as="geometry" />
        </mxCell>
        <mxCell id="6nzBXGpNkiS_T46_idPR-21" value="" style="rounded=0;whiteSpace=wrap;html=1;strokeWidth=1;fillColor=none;fontFamily=GOSTRUS Type A;fontSize=8;labelBackgroundColor=none;" vertex="1" parent="1">
          <mxGeometry x="-836.0766880740143" y="1377.038396766588" width="83.39984180763648" height="27.84674974738969" as="geometry" />
        </mxCell>
        <mxCell id="6nzBXGpNkiS_T46_idPR-22" value="" style="rounded=0;whiteSpace=wrap;html=1;strokeWidth=1;fillColor=none;fontFamily=GOSTRUS Type A;fontSize=8;labelBackgroundColor=none;" vertex="1" parent="1">
          <mxGeometry x="-836.0809247944514" y="1404.8879757494108" width="83.39984180763648" height="27.84674974738969" as="geometry" />
        </mxCell>
        <mxCell id="6nzBXGpNkiS_T46_idPR-23" value="Подп." style="rounded=0;whiteSpace=wrap;html=1;strokeWidth=1;fillColor=none;fontFamily=GOSTRUS Type A;fontStyle=2;fontSize=8;labelBackgroundColor=none;" vertex="1" parent="1">
          <mxGeometry x="-836.0851615148886" y="1432.737554732233" width="83.39984180763648" height="27.84674974738969" as="geometry" />
        </mxCell>
        <mxCell id="6nzBXGpNkiS_T46_idPR-24" value="" style="rounded=0;whiteSpace=wrap;html=1;strokeWidth=1;fillColor=none;fontFamily=GOSTRUS Type A;fontSize=8;labelBackgroundColor=none;" vertex="1" parent="1">
          <mxGeometry x="-836.0766880740143" y="1460.571572920175" width="83.39984180763648" height="27.84674974738969" as="geometry" />
        </mxCell>
        <mxCell id="6nzBXGpNkiS_T46_idPR-25" value="" style="rounded=0;whiteSpace=wrap;html=1;strokeWidth=1;fillColor=none;fontFamily=GOSTRUS Type A;fontSize=8;labelBackgroundColor=none;" vertex="1" parent="1">
          <mxGeometry x="-836.0809247944514" y="1488.4211519029977" width="83.39984180763648" height="27.84674974738969" as="geometry" />
        </mxCell>
        <mxCell id="6nzBXGpNkiS_T46_idPR-26" value="" style="rounded=0;whiteSpace=wrap;html=1;strokeWidth=1;fillColor=none;fontFamily=GOSTRUS Type A;fontSize=8;labelBackgroundColor=none;" vertex="1" parent="1">
          <mxGeometry x="-836.0668023929936" y="1516.2608285618053" width="83.39984180763648" height="27.84674974738969" as="geometry" />
        </mxCell>
        <mxCell id="6nzBXGpNkiS_T46_idPR-27" value="" style="rounded=0;whiteSpace=wrap;html=1;strokeWidth=1;fillColor=none;fontFamily=GOSTRUS Type A;fontSize=8;labelBackgroundColor=none;" vertex="1" parent="1">
          <mxGeometry x="-836.071039113431" y="1544.1104075446278" width="83.39984180763648" height="27.84674974738969" as="geometry" />
        </mxCell>
        <mxCell id="6nzBXGpNkiS_T46_idPR-28" value="" style="rounded=0;whiteSpace=wrap;html=1;strokeWidth=1;fillColor=none;fontFamily=GOSTRUS Type A;fontSize=8;labelBackgroundColor=none;" vertex="1" parent="1">
          <mxGeometry x="-836.0752758338685" y="1571.9599865274502" width="83.39984180763648" height="27.84674974738969" as="geometry" />
        </mxCell>
        <mxCell id="6nzBXGpNkiS_T46_idPR-29" value="" style="rounded=0;whiteSpace=wrap;html=1;strokeWidth=1;fillColor=none;fontFamily=GOSTRUS Type A;fontSize=8;labelBackgroundColor=none;" vertex="1" parent="1">
          <mxGeometry x="-752.659899384631" y="1321.3547995958234" width="55.599894538424316" height="27.84674974738969" as="geometry" />
        </mxCell>
        <mxCell id="6nzBXGpNkiS_T46_idPR-30" value="" style="rounded=0;whiteSpace=wrap;html=1;strokeWidth=1;fillColor=none;fontFamily=GOSTRUS Type A;fontSize=8;labelBackgroundColor=none;" vertex="1" parent="1">
          <mxGeometry x="-752.6641361050683" y="1349.204378578646" width="55.599894538424316" height="27.84674974738969" as="geometry" />
        </mxCell>
        <mxCell id="6nzBXGpNkiS_T46_idPR-31" value="" style="rounded=0;whiteSpace=wrap;html=1;strokeWidth=1;fillColor=none;fontFamily=GOSTRUS Type A;fontSize=8;labelBackgroundColor=none;" vertex="1" parent="1">
          <mxGeometry x="-752.6500137036107" y="1377.0440552374534" width="55.599894538424316" height="27.84674974738969" as="geometry" />
        </mxCell>
        <mxCell id="6nzBXGpNkiS_T46_idPR-32" value="" style="rounded=0;whiteSpace=wrap;html=1;strokeWidth=1;fillColor=none;fontFamily=GOSTRUS Type A;fontSize=8;labelBackgroundColor=none;" vertex="1" parent="1">
          <mxGeometry x="-752.6542504240481" y="1404.893634220276" width="55.599894538424316" height="27.84674974738969" as="geometry" />
        </mxCell>
        <mxCell id="6nzBXGpNkiS_T46_idPR-33" value="Дата" style="rounded=0;whiteSpace=wrap;html=1;strokeWidth=1;fillColor=none;fontFamily=GOSTRUS Type A;fontStyle=2;fontSize=8;labelBackgroundColor=none;" vertex="1" parent="1">
          <mxGeometry x="-752.6584871444852" y="1432.7432132030985" width="55.599894538424316" height="27.84674974738969" as="geometry" />
        </mxCell>
        <mxCell id="6nzBXGpNkiS_T46_idPR-34" value="" style="rounded=0;whiteSpace=wrap;html=1;strokeWidth=1;fillColor=none;fontFamily=GOSTRUS Type A;fontSize=8;labelBackgroundColor=none;" vertex="1" parent="1">
          <mxGeometry x="-752.6401280225905" y="1516.2523408555066" width="55.599894538424316" height="27.84674974738969" as="geometry" />
        </mxCell>
        <mxCell id="6nzBXGpNkiS_T46_idPR-35" value="" style="rounded=0;whiteSpace=wrap;html=1;strokeWidth=1;fillColor=none;fontFamily=GOSTRUS Type A;fontSize=8;labelBackgroundColor=none;" vertex="1" parent="1">
          <mxGeometry x="-752.6443647430274" y="1544.1019198383294" width="55.599894538424316" height="27.84674974738969" as="geometry" />
        </mxCell>
        <mxCell id="6nzBXGpNkiS_T46_idPR-36" value="" style="rounded=0;whiteSpace=wrap;html=1;strokeWidth=1;fillColor=none;fontFamily=GOSTRUS Type A;fontSize=8;labelBackgroundColor=none;" vertex="1" parent="1">
          <mxGeometry x="-752.6486014634647" y="1571.9514988211517" width="55.599894538424316" height="27.84674974738969" as="geometry" />
        </mxCell>
        <mxCell id="6nzBXGpNkiS_T46_idPR-37" value="" style="rounded=0;whiteSpace=wrap;html=1;strokeWidth=1;fillColor=none;fontFamily=GOSTRUS Type A;fontSize=8;labelBackgroundColor=none;" vertex="1" parent="1">
          <mxGeometry x="-836.0371453499329" y="1599.8237116874366" width="83.39984180763648" height="27.84674974738969" as="geometry" />
        </mxCell>
        <mxCell id="6nzBXGpNkiS_T46_idPR-38" value="Разраб." style="rounded=0;whiteSpace=wrap;html=1;strokeWidth=1;fillColor=none;fontFamily=GOSTRUS Type A;fontStyle=2;fontSize=8;labelBackgroundColor=none;" vertex="1" parent="1">
          <mxGeometry x="-1058.4805029481474" y="1460.567329067026" width="94.51982071532134" height="27.84674974738969" as="geometry" />
        </mxCell>
        <mxCell id="6nzBXGpNkiS_T46_idPR-39" value="Проверил" style="rounded=0;whiteSpace=wrap;html=1;strokeWidth=1;fillColor=none;fontFamily=GOSTRUS Type A;fontStyle=2;fontSize=8;labelBackgroundColor=none;" vertex="1" parent="1">
          <mxGeometry x="-1058.5271068729571" y="1488.4169080498484" width="94.51982071532134" height="27.84674974738969" as="geometry" />
        </mxCell>
        <mxCell id="6nzBXGpNkiS_T46_idPR-40" value="Т. контр." style="rounded=0;whiteSpace=wrap;html=1;strokeWidth=1;fillColor=none;fontFamily=GOSTRUS Type A;fontStyle=2;fontSize=8;labelBackgroundColor=none;" vertex="1" parent="1">
          <mxGeometry x="-1058.5313435933947" y="1516.2664870326707" width="94.51982071532134" height="27.84674974738969" as="geometry" />
        </mxCell>
        <mxCell id="6nzBXGpNkiS_T46_idPR-41" value="" style="rounded=0;whiteSpace=wrap;html=1;strokeWidth=1;fillColor=none;fontFamily=GOSTRUS Type A;fontStyle=2;fontSize=8;labelBackgroundColor=none;" vertex="1" parent="1">
          <mxGeometry x="-1058.4790907080016" y="1544.1160660154933" width="94.51982071532134" height="27.84674974738969" as="geometry" />
        </mxCell>
        <mxCell id="6nzBXGpNkiS_T46_idPR-42" value="Н. контр." style="rounded=0;whiteSpace=wrap;html=1;strokeWidth=1;fillColor=none;fontFamily=GOSTRUS Type A;fontStyle=2;fontSize=8;labelBackgroundColor=none;" vertex="1" parent="1">
          <mxGeometry x="-1058.483327428439" y="1571.9797911754795" width="94.51982071532134" height="27.84674974738969" as="geometry" />
        </mxCell>
        <mxCell id="6nzBXGpNkiS_T46_idPR-43" value="Утв." style="rounded=0;whiteSpace=wrap;html=1;strokeWidth=1;fillColor=none;fontFamily=GOSTRUS Type A;fontStyle=2;fontSize=8;labelBackgroundColor=none;" vertex="1" parent="1">
          <mxGeometry x="-1058.4734417474185" y="1599.8293701583018" width="94.51982071532134" height="27.84674974738969" as="geometry" />
        </mxCell>
        <mxCell id="6nzBXGpNkiS_T46_idPR-44" value="" style="rounded=0;whiteSpace=wrap;html=1;strokeWidth=1;fillColor=none;fontFamily=GOSTRUS Type A;fontSize=8;labelBackgroundColor=none;" vertex="1" parent="1">
          <mxGeometry x="-963.9818658350121" y="1544.1344560458065" width="127.87975743837592" height="27.84674974738969" as="geometry" />
        </mxCell>
        <mxCell id="6nzBXGpNkiS_T46_idPR-45" value="" style="rounded=0;whiteSpace=wrap;html=1;strokeWidth=1;fillColor=none;fontFamily=GOSTRUS Type A;fontSize=8;labelBackgroundColor=none;" vertex="1" parent="1">
          <mxGeometry x="-964.0341187204051" y="1516.2848770629842" width="127.87975743837592" height="27.84674974738969" as="geometry" />
        </mxCell>
        <mxCell id="6nzBXGpNkiS_T46_idPR-46" value="" style="rounded=0;whiteSpace=wrap;html=1;strokeWidth=1;fillColor=none;fontFamily=GOSTRUS Type A;fontSize=8;labelBackgroundColor=none;" vertex="1" parent="1">
          <mxGeometry x="-963.9253762291819" y="1571.945840350286" width="127.87975743837592" height="27.84674974738969" as="geometry" />
        </mxCell>
        <object placeholders="1" placeholder="BlueprintName" id="6nzBXGpNkiS_T46_idPR-47">
          <mxCell style="rounded=0;whiteSpace=wrap;html=1;strokeWidth=1;fillColor=none;fontFamily=GOSTRUS Type A;fontSize=8;labelBackgroundColor=none;" vertex="1" parent="1">
            <mxGeometry x="-697.0416457243136" y="1321.359043448973" width="667.1987344610918" height="83.54024924216908" as="geometry" />
          </mxCell>
        </object>
        <object placeholders="1" placeholder="ProductName" id="6nzBXGpNkiS_T46_idPR-48">
          <mxCell style="rounded=0;whiteSpace=wrap;html=1;strokeWidth=1;fillColor=none;fontFamily=GOSTRUS Type A;fontSize=8;labelBackgroundColor=none;" vertex="1" parent="1">
            <mxGeometry x="-697.0458824447508" y="1404.8596833950828" width="389.1992617689702" height="139.23374873694848" as="geometry" />
          </mxCell>
        </object>
        <object placeholders="1" placeholder="Material" id="6nzBXGpNkiS_T46_idPR-49">
          <mxCell style="rounded=0;whiteSpace=wrap;html=1;strokeWidth=1;fillColor=none;fontFamily=GOSTRUS Type A;fontSize=8;labelBackgroundColor=none;" vertex="1" parent="1">
            <mxGeometry x="-697.0924863695604" y="1544.096261367464" width="389.1992617689702" height="83.54024924216908" as="geometry" />
          </mxCell>
        </object>
        <object placeholders="1" placeholder="Manufacturer" label="" id="6nzBXGpNkiS_T46_idPR-50">
          <mxCell style="rounded=0;whiteSpace=wrap;html=1;strokeWidth=1;fillColor=none;fontFamily=GOSTRUS Type A;fontSize=8;labelBackgroundColor=none;" vertex="1" parent="1">
            <mxGeometry x="-307.8409717152085" y="1544.1344560458065" width="277.99947269212157" height="83.54024924216908" as="geometry" />
          </mxCell>
        </object>
        <object label="Лист" placeholders="1" id="6nzBXGpNkiS_T46_idPR-51">
          <mxCell style="rounded=0;whiteSpace=wrap;html=1;strokeWidth=1;fillColor=none;fontFamily=GOSTRUS Type A;fontStyle=2;fontSize=8;labelBackgroundColor=none;" vertex="1" parent="1">
            <mxGeometry x="-307.8452084356459" y="1516.2339508251932" width="111.19978907684863" height="27.84674974738969" as="geometry" />
          </mxCell>
        </object>
        <mxCell id="6nzBXGpNkiS_T46_idPR-52" value="Листов 1" style="rounded=0;whiteSpace=wrap;html=1;strokeWidth=1;fillColor=none;fontFamily=GOSTRUS Type A;fontStyle=2;fontSize=8;labelBackgroundColor=none;" vertex="1" parent="1">
          <mxGeometry x="-196.7343904879831" y="1516.2862916807" width="166.79968361527295" height="27.84674974738969" as="geometry" />
        </mxCell>
        <mxCell id="6nzBXGpNkiS_T46_idPR-53" value="Масштаб" style="rounded=0;whiteSpace=wrap;html=1;strokeWidth=1;fillColor=none;fontFamily=GOSTRUS Type A;fontStyle=2;fontSize=8;labelBackgroundColor=none;" vertex="1" parent="1">
          <mxGeometry x="-129.92554591269345" y="1404.8667564836637" width="100.07981016916378" height="27.84674974738969" as="geometry" />
        </mxCell>
        <mxCell id="6nzBXGpNkiS_T46_idPR-54" value="Масса" style="rounded=0;whiteSpace=wrap;html=1;strokeWidth=1;fillColor=none;fontFamily=GOSTRUS Type A;fontStyle=2;fontSize=8;labelBackgroundColor=none;" vertex="1" parent="1">
          <mxGeometry x="-224.4510155885946" y="1404.9049511620065" width="94.51982071532134" height="27.84674974738969" as="geometry" />
        </mxCell>
        <mxCell id="6nzBXGpNkiS_T46_idPR-55" value="Лит." style="rounded=0;whiteSpace=wrap;html=1;strokeWidth=1;fillColor=none;fontFamily=GOSTRUS Type A;fontStyle=2;fontSize=8;labelBackgroundColor=none;" vertex="1" parent="1">
          <mxGeometry x="-307.8480329159372" y="1404.858268777365" width="83.39984180763648" height="27.84674974738969" as="geometry" />
        </mxCell>
        <mxCell id="6nzBXGpNkiS_T46_idPR-56" value="" style="rounded=0;whiteSpace=wrap;html=1;strokeWidth=1;fillColor=none;fontFamily=GOSTRUS Type A;fontSize=8;labelBackgroundColor=none;" vertex="1" parent="1">
          <mxGeometry x="-307.89463684074735" y="1432.7502862916797" width="83.39984180763648" height="83.54024924216908" as="geometry" />
        </mxCell>
        <mxCell id="6nzBXGpNkiS_T46_idPR-57" value="" style="rounded=0;whiteSpace=wrap;html=1;strokeWidth=1;fillColor=none;fontFamily=GOSTRUS Type A;fontSize=8;labelBackgroundColor=none;" vertex="1" parent="1">
          <mxGeometry x="-224.44112990757412" y="1432.697945436173" width="94.51982071532134" height="83.54024924216908" as="geometry" />
        </mxCell>
        <object placeholders="1" placeholder="Scale" id="6nzBXGpNkiS_T46_idPR-58">
          <mxCell style="rounded=0;whiteSpace=wrap;html=1;strokeWidth=1;fillColor=none;fontFamily=GOSTRUS Type A;fontSize=8;labelBackgroundColor=none;" vertex="1" parent="1">
            <mxGeometry x="-130.01451704187593" y="1432.7021892893222" width="100.07981016916378" height="83.54024924216908" as="geometry" />
          </mxCell>
        </object>
        <mxCell id="6nzBXGpNkiS_T46_idPR-59" value="" style="rounded=0;whiteSpace=wrap;html=1;strokeWidth=1;fillColor=none;fontFamily=GOSTRUS Type A;fontSize=8;labelBackgroundColor=none;" vertex="1" parent="1">
          <mxGeometry x="-307.8423839553543" y="1432.6894577298747" width="27.799947269212158" height="83.54024924216908" as="geometry" />
        </mxCell>
        <mxCell id="6nzBXGpNkiS_T46_idPR-60" value="" style="rounded=0;whiteSpace=wrap;html=1;strokeWidth=1;fillColor=none;fontFamily=GOSTRUS Type A;fontSize=8;labelBackgroundColor=none;" vertex="1" parent="1">
          <mxGeometry x="-280.0961018116818" y="1432.7559447625454" width="27.799947269212158" height="83.54024924216908" as="geometry" />
        </mxCell>
        <mxCell id="6nzBXGpNkiS_T46_idPR-61" value="" style="rounded=0;whiteSpace=wrap;html=1;strokeWidth=1;fillColor=none;fontFamily=GOSTRUS Type A;fontSize=8;labelBackgroundColor=none;" vertex="1" parent="1">
          <mxGeometry x="-252.23684045634855" y="1432.751700909396" width="27.799947269212158" height="83.54024924216908" as="geometry" />
        </mxCell>
        <mxCell id="6nzBXGpNkiS_T46_idPR-62" value="Формат А2" style="text;html=1;strokeColor=none;fillColor=none;align=center;verticalAlign=middle;whiteSpace=wrap;rounded=0;fontFamily=GOSTRUS Type A;fontSize=8;fontStyle=2;labelBackgroundColor=none;" vertex="1" parent="1">
          <mxGeometry x="-309.33229730912717" y="1624.985517009094" width="277.98535029066403" height="28.292354328056586" as="geometry" />
        </mxCell>
        <mxCell id="6nzBXGpNkiS_T46_idPR-63" value="" style="group;fontSize=8;labelBackgroundColor=none;" vertex="1" connectable="0" parent="1">
          <mxGeometry x="-836.4368093111818" y="1544.087773661165" width="639.7913899523998" height="82.7226002020887" as="geometry" />
        </mxCell>
        <mxCell id="6nzBXGpNkiS_T46_idPR-64" value="" style="endArrow=none;html=1;strokeWidth=2;entryX=0;entryY=0;entryDx=0;entryDy=0;fontFamily=GOSTRUS Type A;fontSize=8;labelBackgroundColor=none;fontColor=default;" edge="1" parent="6nzBXGpNkiS_T46_idPR-63" target="6nzBXGpNkiS_T46_idPR-19">
          <mxGeometry width="50" height="50" relative="1" as="geometry">
            <mxPoint y="82.7226002020887" as="sourcePoint" />
            <mxPoint x="269.73786783944746" y="-163.4208824520036" as="targetPoint" />
          </mxGeometry>
        </mxCell>
        <mxCell id="6nzBXGpNkiS_T46_idPR-65" value="" style="endArrow=none;html=1;strokeWidth=2;entryX=0;entryY=0;entryDx=0;entryDy=0;exitX=0;exitY=0;exitDx=0;exitDy=0;fontFamily=GOSTRUS Type A;fontSize=8;labelBackgroundColor=none;fontColor=default;" edge="1" parent="6nzBXGpNkiS_T46_idPR-63" target="6nzBXGpNkiS_T46_idPR-52">
          <mxGeometry width="50" height="50" relative="1" as="geometry">
            <mxPoint x="639.7913899523998" as="sourcePoint" />
            <mxPoint x="402.4884415405368" y="-101.17770293027912" as="targetPoint" />
          </mxGeometry>
        </mxCell>
        <mxCell id="6nzBXGpNkiS_T46_idPR-66" value="Перв. примен." style="rounded=0;whiteSpace=wrap;html=1;strokeWidth=1;fillColor=none;fontFamily=GOSTRUS Type A;fontSize=8;rotation=-90;fontStyle=2;labelBackgroundColor=none;" vertex="1" parent="1">
          <mxGeometry x="-2444.4671043948106" y="182.3654429100707" width="333.5993672305459" height="27.84674974738969" as="geometry" />
        </mxCell>
        <mxCell id="6nzBXGpNkiS_T46_idPR-67" value="Сопр. №" style="rounded=0;whiteSpace=wrap;html=1;strokeWidth=1;fillColor=none;fontFamily=GOSTRUS Type A;fontSize=8;rotation=-90;fontStyle=2;labelBackgroundColor=none;" vertex="1" parent="1">
          <mxGeometry x="-2444.471341115248" y="516.4514651397778" width="333.5993672305459" height="27.84674974738969" as="geometry" />
        </mxCell>
        <mxCell id="6nzBXGpNkiS_T46_idPR-68" value="" style="rounded=0;whiteSpace=wrap;html=1;strokeWidth=1;fillColor=none;fontFamily=GOSTRUS Type A;fontSize=8;rotation=-90;labelBackgroundColor=none;" vertex="1" parent="1">
          <mxGeometry x="-2411.19896328123" y="510.8877736611653" width="333.5993672305459" height="38.98544964634557" as="geometry" />
        </mxCell>
        <mxCell id="6nzBXGpNkiS_T46_idPR-69" value="" style="rounded=0;whiteSpace=wrap;html=1;strokeWidth=1;fillColor=none;fontFamily=GOSTRUS Type A;fontSize=8;rotation=-90;labelBackgroundColor=none;" vertex="1" parent="1">
          <mxGeometry x="-2411.2032000016675" y="176.79750757830922" width="333.5993672305459" height="38.98544964634557" as="geometry" />
        </mxCell>
        <mxCell id="6nzBXGpNkiS_T46_idPR-70" value="" style="endArrow=none;html=1;fontSize=8;strokeWidth=2;entryX=1;entryY=1;entryDx=0;entryDy=0;exitX=1;exitY=0;exitDx=0;exitDy=0;labelBackgroundColor=none;fontColor=default;" edge="1" parent="1" source="6nzBXGpNkiS_T46_idPR-66" target="6nzBXGpNkiS_T46_idPR-2">
          <mxGeometry width="50" height="50" relative="1" as="geometry">
            <mxPoint x="-2254.0900715461366" y="154.19333108790838" as="sourcePoint" />
            <mxPoint x="-2183.4780642583232" y="83.46244526776692" as="targetPoint" />
          </mxGeometry>
        </mxCell>
        <mxCell id="6nzBXGpNkiS_T46_idPR-71" value="" style="endArrow=none;html=1;fontSize=8;strokeWidth=2;exitX=1;exitY=0;exitDx=0;exitDy=0;entryX=0;entryY=0;entryDx=0;entryDy=0;labelBackgroundColor=none;fontColor=default;" edge="1" parent="1" source="6nzBXGpNkiS_T46_idPR-66" target="6nzBXGpNkiS_T46_idPR-67">
          <mxGeometry width="50" height="50" relative="1" as="geometry">
            <mxPoint x="-2254.0900715461366" y="154.19333108790838" as="sourcePoint" />
            <mxPoint x="-2183.4780642583232" y="83.46244526776692" as="targetPoint" />
          </mxGeometry>
        </mxCell>
        <mxCell id="6nzBXGpNkiS_T46_idPR-72" value="" style="endArrow=none;html=1;fontSize=8;strokeWidth=2;exitX=0;exitY=0;exitDx=0;exitDy=0;entryX=0;entryY=1;entryDx=0;entryDy=0;labelBackgroundColor=none;fontColor=default;" edge="1" parent="1" source="6nzBXGpNkiS_T46_idPR-67" target="6nzBXGpNkiS_T46_idPR-68">
          <mxGeometry width="50" height="50" relative="1" as="geometry">
            <mxPoint x="-2254.0900715461366" y="683.2603570225666" as="sourcePoint" />
            <mxPoint x="-2183.4780642583232" y="612.529471202425" as="targetPoint" />
          </mxGeometry>
        </mxCell>
        <mxCell id="6nzBXGpNkiS_T46_idPR-73" value="" style="endArrow=none;html=1;fontSize=8;strokeWidth=2;exitX=0;exitY=1;exitDx=0;exitDy=0;entryX=1;entryY=1;entryDx=0;entryDy=0;labelBackgroundColor=none;fontColor=default;" edge="1" parent="1" source="6nzBXGpNkiS_T46_idPR-68" target="6nzBXGpNkiS_T46_idPR-69">
          <mxGeometry width="50" height="50" relative="1" as="geometry">
            <mxPoint x="-2254.0900715461366" y="683.2603570225666" as="sourcePoint" />
            <mxPoint x="-2183.4780642583232" y="612.529471202425" as="targetPoint" />
          </mxGeometry>
        </mxCell>
        <mxCell id="6nzBXGpNkiS_T46_idPR-74" value="Инв. № подл." style="rounded=0;whiteSpace=wrap;html=1;strokeWidth=1;fillColor=none;fontFamily=GOSTRUS Type A;fontSize=8;rotation=-90;fontStyle=2;labelBackgroundColor=none;" vertex="1" parent="1">
          <mxGeometry x="-2347.1072687463734" y="1544.0340181879424" width="138.99973634606079" height="27.84674974738969" as="geometry" />
        </mxCell>
        <mxCell id="6nzBXGpNkiS_T46_idPR-75" value="Взам. инв. №" style="rounded=0;whiteSpace=wrap;html=1;strokeWidth=1;fillColor=none;fontFamily=GOSTRUS Type A;fontSize=8;rotation=-90;fontStyle=2;labelBackgroundColor=none;" vertex="1" parent="1">
          <mxGeometry x="-2347.1115054668107" y="1209.8687773661165" width="138.99973634606079" height="27.84674974738969" as="geometry" />
        </mxCell>
        <mxCell id="6nzBXGpNkiS_T46_idPR-76" value="Инв. № дубл." style="rounded=0;whiteSpace=wrap;html=1;strokeWidth=1;fillColor=none;fontFamily=GOSTRUS Type A;fontSize=8;rotation=-90;fontStyle=2;labelBackgroundColor=none;" vertex="1" parent="1">
          <mxGeometry x="-2347.115742187248" y="1070.637857864601" width="138.99973634606079" height="27.84674974738969" as="geometry" />
        </mxCell>
        <mxCell id="6nzBXGpNkiS_T46_idPR-77" value="Подп. и дата" style="rounded=0;whiteSpace=wrap;html=1;strokeWidth=1;fillColor=none;fontFamily=GOSTRUS Type A;fontSize=8;rotation=-90;fontStyle=2;labelBackgroundColor=none;" vertex="1" parent="1">
          <mxGeometry x="-2374.9128649761687" y="903.5531155271137" width="194.5996308844851" height="27.84674974738969" as="geometry" />
        </mxCell>
        <mxCell id="6nzBXGpNkiS_T46_idPR-78" value="Подп. и дата" style="rounded=0;whiteSpace=wrap;html=1;strokeWidth=1;fillColor=none;fontFamily=GOSTRUS Type A;fontSize=8;rotation=-90;fontStyle=2;labelBackgroundColor=none;" vertex="1" parent="1">
          <mxGeometry x="-2374.9029792951483" y="1376.9506904681714" width="194.5996308844851" height="27.84674974738969" as="geometry" />
        </mxCell>
        <mxCell id="6nzBXGpNkiS_T46_idPR-79" value="" style="rounded=0;whiteSpace=wrap;html=1;strokeWidth=1;fillColor=none;fontFamily=GOSTRUS Type A;fontSize=8;rotation=-90;labelBackgroundColor=none;" vertex="1" parent="1">
          <mxGeometry x="-2313.754393224048" y="1538.47032670933" width="138.99973634606079" height="38.98544964634557" as="geometry" />
        </mxCell>
        <mxCell id="6nzBXGpNkiS_T46_idPR-80" value="" style="rounded=0;whiteSpace=wrap;html=1;strokeWidth=1;fillColor=none;fontFamily=GOSTRUS Type A;fontSize=8;rotation=-90;labelBackgroundColor=none;" vertex="1" parent="1">
          <mxGeometry x="-2313.7586299444847" y="1204.3050858875042" width="138.99973634606079" height="38.98544964634557" as="geometry" />
        </mxCell>
        <mxCell id="6nzBXGpNkiS_T46_idPR-81" value="" style="rounded=0;whiteSpace=wrap;html=1;strokeWidth=1;fillColor=none;fontFamily=GOSTRUS Type A;fontSize=8;rotation=-90;labelBackgroundColor=none;" vertex="1" parent="1">
          <mxGeometry x="-2313.762866664922" y="1065.0741663859887" width="138.99973634606079" height="38.98544964634557" as="geometry" />
        </mxCell>
        <mxCell id="6nzBXGpNkiS_T46_idPR-82" value="" style="rounded=0;whiteSpace=wrap;html=1;strokeWidth=1;fillColor=none;fontFamily=GOSTRUS Type A;fontSize=8;rotation=-90;labelBackgroundColor=none;" vertex="1" parent="1">
          <mxGeometry x="-2341.5599894538427" y="897.9894240485014" width="194.5996308844851" height="38.98544964634557" as="geometry" />
        </mxCell>
        <mxCell id="6nzBXGpNkiS_T46_idPR-83" value="" style="rounded=0;whiteSpace=wrap;html=1;strokeWidth=1;fillColor=none;fontFamily=GOSTRUS Type A;fontSize=8;rotation=-90;labelBackgroundColor=none;" vertex="1" parent="1">
          <mxGeometry x="-2341.5501037728227" y="1371.386998989559" width="194.5996308844851" height="38.98544964634557" as="geometry" />
        </mxCell>
        <mxCell id="6nzBXGpNkiS_T46_idPR-84" value="" style="endArrow=none;html=1;fontSize=8;strokeWidth=2;entryX=1;entryY=1;entryDx=0;entryDy=0;exitX=0;exitY=1;exitDx=0;exitDy=0;labelBackgroundColor=none;fontColor=default;" edge="1" parent="1" source="6nzBXGpNkiS_T46_idPR-79" target="6nzBXGpNkiS_T46_idPR-82">
          <mxGeometry width="50" height="50" relative="1" as="geometry">
            <mxPoint x="-2214.547347464961" y="1312.7652408218257" as="sourcePoint" />
            <mxPoint x="-2143.9353401771477" y="1242.0343550016842" as="targetPoint" />
          </mxGeometry>
        </mxCell>
        <mxCell id="6nzBXGpNkiS_T46_idPR-85" value="" style="endArrow=none;html=1;fontSize=8;strokeWidth=2;exitX=0;exitY=1;exitDx=0;exitDy=0;entryX=0;entryY=0;entryDx=0;entryDy=0;labelBackgroundColor=none;fontColor=default;" edge="1" parent="1" source="6nzBXGpNkiS_T46_idPR-79" target="6nzBXGpNkiS_T46_idPR-74">
          <mxGeometry width="50" height="50" relative="1" as="geometry">
            <mxPoint x="-2214.547347464961" y="1312.7652408218257" as="sourcePoint" />
            <mxPoint x="-2143.9353401771477" y="1242.0343550016842" as="targetPoint" />
          </mxGeometry>
        </mxCell>
        <mxCell id="6nzBXGpNkiS_T46_idPR-86" value="" style="endArrow=none;html=1;fontSize=8;strokeWidth=2;exitX=0;exitY=0;exitDx=0;exitDy=0;entryX=1;entryY=0;entryDx=0;entryDy=0;fontStyle=2;labelBackgroundColor=none;fontColor=default;" edge="1" parent="1" source="6nzBXGpNkiS_T46_idPR-74" target="6nzBXGpNkiS_T46_idPR-77">
          <mxGeometry width="50" height="50" relative="1" as="geometry">
            <mxPoint x="-2208.8983868819364" y="1546.1771640282923" as="sourcePoint" />
            <mxPoint x="-2138.286379594123" y="1475.4462782081512" as="targetPoint" />
          </mxGeometry>
        </mxCell>
        <mxCell id="6nzBXGpNkiS_T46_idPR-87" value="" style="endArrow=none;html=1;fontSize=8;strokeWidth=2;exitX=1;exitY=0;exitDx=0;exitDy=0;entryX=1;entryY=1;entryDx=0;entryDy=0;labelBackgroundColor=none;fontColor=default;" edge="1" parent="1" source="6nzBXGpNkiS_T46_idPR-77" target="6nzBXGpNkiS_T46_idPR-82">
          <mxGeometry width="50" height="50" relative="1" as="geometry">
            <mxPoint x="-2265.387992712187" y="878.477601886157" as="sourcePoint" />
            <mxPoint x="-2237.1431897970615" y="819.0636577972382" as="targetPoint" />
          </mxGeometry>
        </mxCell>
        <mxCell id="6nzBXGpNkiS_T46_idPR-88" value="" style="endArrow=none;html=1;strokeWidth=2;exitX=0;exitY=1;exitDx=0;exitDy=0;entryX=1;entryY=1;entryDx=0;entryDy=0;fontFamily=GOSTRUS Type A;fontSize=8;labelBackgroundColor=none;fontColor=default;" edge="1" parent="1" source="6nzBXGpNkiS_T46_idPR-1" target="6nzBXGpNkiS_T46_idPR-3">
          <mxGeometry width="50" height="50" relative="1" as="geometry">
            <mxPoint x="-596.355984532616" y="1418.861569552038" as="sourcePoint" />
            <mxPoint x="-525.7439772448026" y="1348.1306837318964" as="targetPoint" />
          </mxGeometry>
        </mxCell>
        <mxCell id="6nzBXGpNkiS_T46_idPR-89" value="" style="endArrow=none;html=1;strokeWidth=2;entryX=0;entryY=0;entryDx=0;entryDy=0;exitX=1;exitY=1;exitDx=0;exitDy=0;fontFamily=GOSTRUS Type A;fontSize=8;labelBackgroundColor=none;fontColor=default;" edge="1" parent="1" source="6nzBXGpNkiS_T46_idPR-8" target="6nzBXGpNkiS_T46_idPR-9">
          <mxGeometry width="50" height="50" relative="1" as="geometry">
            <mxPoint x="-596.355984532616" y="1418.861569552038" as="sourcePoint" />
            <mxPoint x="-525.7439772448026" y="1348.1306837318964" as="targetPoint" />
          </mxGeometry>
        </mxCell>
        <mxCell id="6nzBXGpNkiS_T46_idPR-90" value="" style="endArrow=none;html=1;strokeWidth=2;exitX=0;exitY=1;exitDx=0;exitDy=0;entryX=1;entryY=0;entryDx=0;entryDy=0;fontFamily=GOSTRUS Type A;fontSize=8;labelBackgroundColor=none;fontColor=default;" edge="1" parent="1" source="6nzBXGpNkiS_T46_idPR-7" target="6nzBXGpNkiS_T46_idPR-33">
          <mxGeometry width="50" height="50" relative="1" as="geometry">
            <mxPoint x="-753.1146407115618" y="1407.544627820815" as="sourcePoint" />
            <mxPoint x="-682.5026334237484" y="1336.8137420006738" as="targetPoint" />
          </mxGeometry>
        </mxCell>
        <mxCell id="6nzBXGpNkiS_T46_idPR-91" value="" style="endArrow=none;html=1;strokeWidth=2;entryX=0;entryY=0;entryDx=0;entryDy=0;exitX=0;exitY=1;exitDx=0;exitDy=0;fontFamily=GOSTRUS Type A;fontSize=8;labelBackgroundColor=none;fontColor=default;" edge="1" parent="1" target="6nzBXGpNkiS_T46_idPR-29">
          <mxGeometry width="50" height="50" relative="1" as="geometry">
            <mxPoint x="-752.6952053882751" y="1627.6619737285278" as="sourcePoint" />
            <mxPoint x="-753.1146407115618" y="1319.83832940384" as="targetPoint" />
          </mxGeometry>
        </mxCell>
        <mxCell id="6nzBXGpNkiS_T46_idPR-92" value="" style="endArrow=none;html=1;strokeWidth=2;exitX=0;exitY=0;exitDx=0;exitDy=0;entryX=1;entryY=0;entryDx=0;entryDy=0;fontFamily=GOSTRUS Type A;fontSize=8;labelBackgroundColor=none;fontColor=default;" edge="1" parent="1" source="6nzBXGpNkiS_T46_idPR-38">
          <mxGeometry width="50" height="50" relative="1" as="geometry">
            <mxPoint x="-819.4899275621065" y="1534.8602222970699" as="sourcePoint" />
            <mxPoint x="-697.0501191651865" y="1460.5630852138765" as="targetPoint" />
          </mxGeometry>
        </mxCell>
        <mxCell id="6nzBXGpNkiS_T46_idPR-93" value="" style="endArrow=none;html=1;strokeWidth=2;entryX=0;entryY=0;entryDx=0;entryDy=0;exitX=0;exitY=1;exitDx=0;exitDy=0;fontFamily=GOSTRUS Type A;fontSize=8;labelBackgroundColor=none;fontColor=default;" edge="1" parent="1" source="6nzBXGpNkiS_T46_idPR-43" target="6nzBXGpNkiS_T46_idPR-4">
          <mxGeometry width="50" height="50" relative="1" as="geometry">
            <mxPoint x="-596.355984532616" y="1418.861569552038" as="sourcePoint" />
            <mxPoint x="-525.7439772448026" y="1348.1306837318964" as="targetPoint" />
          </mxGeometry>
        </mxCell>
        <mxCell id="6nzBXGpNkiS_T46_idPR-94" value="" style="endArrow=none;html=1;strokeWidth=2;entryX=0;entryY=0;entryDx=0;entryDy=0;exitX=0;exitY=1;exitDx=0;exitDy=0;fontFamily=GOSTRUS Type A;fontSize=8;labelBackgroundColor=none;fontColor=default;" edge="1" parent="1" target="6nzBXGpNkiS_T46_idPR-14">
          <mxGeometry width="50" height="50" relative="1" as="geometry">
            <mxPoint x="-963.8731233437888" y="1627.6421690804987" as="sourcePoint" />
            <mxPoint x="-565.2867013259781" y="1380.6668912091613" as="targetPoint" />
          </mxGeometry>
        </mxCell>
        <mxCell id="6nzBXGpNkiS_T46_idPR-95" value="" style="endArrow=none;html=1;strokeWidth=2;entryX=1;entryY=0;entryDx=0;entryDy=0;exitX=1;exitY=1;exitDx=0;exitDy=0;fontFamily=GOSTRUS Type A;fontSize=8;labelBackgroundColor=none;fontColor=default;" edge="1" parent="1" source="6nzBXGpNkiS_T46_idPR-1" target="6nzBXGpNkiS_T46_idPR-47">
          <mxGeometry width="50" height="50" relative="1" as="geometry">
            <mxPoint x="-596.355984532616" y="1418.861569552038" as="sourcePoint" />
            <mxPoint x="-525.7439772448026" y="1348.1306837318964" as="targetPoint" />
          </mxGeometry>
        </mxCell>
        <mxCell id="6nzBXGpNkiS_T46_idPR-96" value="" style="endArrow=none;html=1;strokeWidth=2;exitX=0;exitY=0;exitDx=0;exitDy=0;entryX=1;entryY=0;entryDx=0;entryDy=0;fontFamily=GOSTRUS Type A;fontSize=8;labelBackgroundColor=none;fontColor=default;" edge="1" parent="1" source="6nzBXGpNkiS_T46_idPR-4" target="6nzBXGpNkiS_T46_idPR-47">
          <mxGeometry width="50" height="50" relative="1" as="geometry">
            <mxPoint x="-713.5719166303863" y="1435.8369821488716" as="sourcePoint" />
            <mxPoint x="-642.9599093425732" y="1365.1060963287302" as="targetPoint" />
          </mxGeometry>
        </mxCell>
        <mxCell id="6nzBXGpNkiS_T46_idPR-97" value="" style="endArrow=none;html=1;strokeWidth=2;entryX=0;entryY=0;entryDx=0;entryDy=0;exitX=1;exitY=1;exitDx=0;exitDy=0;fontFamily=GOSTRUS Type A;fontSize=8;labelBackgroundColor=none;fontColor=default;" edge="1" parent="1" target="6nzBXGpNkiS_T46_idPR-47">
          <mxGeometry width="50" height="50" relative="1" as="geometry">
            <mxPoint x="-697.0953108498506" y="1627.6619737285278" as="sourcePoint" />
            <mxPoint x="-671.2047122576982" y="1391.983832940384" as="targetPoint" />
          </mxGeometry>
        </mxCell>
        <mxCell id="6nzBXGpNkiS_T46_idPR-98" value="" style="endArrow=none;html=1;strokeWidth=2;entryX=1;entryY=0;entryDx=0;entryDy=0;exitX=0;exitY=1;exitDx=0;exitDy=0;fontFamily=GOSTRUS Type A;fontSize=8;labelBackgroundColor=none;fontColor=default;" edge="1" parent="1" source="6nzBXGpNkiS_T46_idPR-50" target="6nzBXGpNkiS_T46_idPR-48">
          <mxGeometry width="50" height="50" relative="1" as="geometry">
            <mxPoint x="-503.1481349127023" y="1513.6409565510273" as="sourcePoint" />
            <mxPoint x="-432.5361276248891" y="1442.9100707308858" as="targetPoint" />
          </mxGeometry>
        </mxCell>
        <mxCell id="6nzBXGpNkiS_T46_idPR-99" value="" style="endArrow=none;html=1;strokeWidth=2;exitX=0;exitY=1;exitDx=0;exitDy=0;entryX=1;entryY=1;entryDx=0;entryDy=0;fontFamily=GOSTRUS Type A;fontSize=8;labelBackgroundColor=none;fontColor=default;" edge="1" parent="1" source="6nzBXGpNkiS_T46_idPR-48" target="6nzBXGpNkiS_T46_idPR-52">
          <mxGeometry width="50" height="50" relative="1" as="geometry">
            <mxPoint x="-503.1481349127023" y="1513.6409565510273" as="sourcePoint" />
            <mxPoint x="-432.5361276248891" y="1442.9100707308858" as="targetPoint" />
          </mxGeometry>
        </mxCell>
        <mxCell id="6nzBXGpNkiS_T46_idPR-100" value="" style="endArrow=none;html=1;strokeWidth=2;exitX=0;exitY=0;exitDx=0;exitDy=0;entryX=1;entryY=0;entryDx=0;entryDy=0;fontFamily=GOSTRUS Type A;fontSize=8;labelBackgroundColor=none;fontColor=default;" edge="1" parent="1" source="6nzBXGpNkiS_T46_idPR-48" target="6nzBXGpNkiS_T46_idPR-53">
          <mxGeometry width="50" height="50" relative="1" as="geometry">
            <mxPoint x="-503.1481349127023" y="1513.6409565510273" as="sourcePoint" />
            <mxPoint x="-432.5361276248891" y="1442.9100707308858" as="targetPoint" />
          </mxGeometry>
        </mxCell>
        <mxCell id="6nzBXGpNkiS_T46_idPR-101" value="" style="endArrow=none;html=1;strokeWidth=2;entryX=0;entryY=0;entryDx=0;entryDy=0;exitX=0;exitY=1;exitDx=0;exitDy=0;fontFamily=GOSTRUS Type A;fontSize=8;labelBackgroundColor=none;fontColor=default;" edge="1" parent="1" source="6nzBXGpNkiS_T46_idPR-57" target="6nzBXGpNkiS_T46_idPR-54">
          <mxGeometry width="50" height="50" relative="1" as="geometry">
            <mxPoint x="-503.1481349127023" y="1513.6409565510273" as="sourcePoint" />
            <mxPoint x="-432.5361276248891" y="1442.9100707308858" as="targetPoint" />
          </mxGeometry>
        </mxCell>
        <mxCell id="6nzBXGpNkiS_T46_idPR-102" value="" style="endArrow=none;html=1;strokeWidth=2;entryX=1;entryY=1;entryDx=0;entryDy=0;exitX=0;exitY=0;exitDx=0;exitDy=0;fontFamily=GOSTRUS Type A;fontSize=8;labelBackgroundColor=none;fontColor=default;" edge="1" parent="1" source="6nzBXGpNkiS_T46_idPR-51" target="6nzBXGpNkiS_T46_idPR-58">
          <mxGeometry width="50" height="50" relative="1" as="geometry">
            <mxPoint x="-503.1481349127023" y="1513.6409565510273" as="sourcePoint" />
            <mxPoint x="-432.5361276248891" y="1442.9100707308858" as="targetPoint" />
          </mxGeometry>
        </mxCell>
        <mxCell id="6nzBXGpNkiS_T46_idPR-103" value="" style="endArrow=none;html=1;strokeWidth=2;entryX=1;entryY=0;entryDx=0;entryDy=0;exitX=0;exitY=1;exitDx=0;exitDy=0;fontFamily=GOSTRUS Type A;fontSize=8;labelBackgroundColor=none;fontColor=default;" edge="1" parent="1" source="6nzBXGpNkiS_T46_idPR-58" target="6nzBXGpNkiS_T46_idPR-54">
          <mxGeometry width="50" height="50" relative="1" as="geometry">
            <mxPoint x="-503.1481349127023" y="1513.6409565510273" as="sourcePoint" />
            <mxPoint x="-432.5361276248891" y="1442.9100707308858" as="targetPoint" />
          </mxGeometry>
        </mxCell>
        <mxCell id="6nzBXGpNkiS_T46_idPR-104" value="" style="endArrow=none;html=1;strokeWidth=2;entryX=1;entryY=0;entryDx=0;entryDy=0;exitX=0;exitY=1;exitDx=0;exitDy=0;fontFamily=GOSTRUS Type A;fontSize=8;labelBackgroundColor=none;fontColor=default;" edge="1" parent="1" source="6nzBXGpNkiS_T46_idPR-55" target="6nzBXGpNkiS_T46_idPR-58">
          <mxGeometry width="50" height="50" relative="1" as="geometry">
            <mxPoint x="-503.1481349127023" y="1513.6409565510273" as="sourcePoint" />
            <mxPoint x="-432.5361276248891" y="1442.9100707308858" as="targetPoint" />
          </mxGeometry>
        </mxCell>
        <mxCell id="6nzBXGpNkiS_T46_idPR-105" style="edgeStyle=orthogonalEdgeStyle;rounded=0;orthogonalLoop=1;jettySize=auto;html=1;entryX=0.5;entryY=1;entryDx=0;entryDy=0;" edge="1" parent="1">
          <mxGeometry relative="1" as="geometry">
            <Array as="points">
              <mxPoint x="-972.0000000000005" y="1291" />
              <mxPoint x="-124.00000000000045" y="1291" />
            </Array>
            <mxPoint x="-123.68489743589816" y="1255.1200625000001" as="targetPoint" />
          </mxGeometry>
        </mxCell>
        <mxCell id="6nzBXGpNkiS_T46_idPR-109" value="" style="edgeStyle=orthogonalEdgeStyle;rounded=0;orthogonalLoop=1;jettySize=auto;html=1;" edge="1" parent="1" source="6nzBXGpNkiS_T46_idPR-107" target="6nzBXGpNkiS_T46_idPR-108">
          <mxGeometry relative="1" as="geometry" />
        </mxCell>
        <mxCell id="6nzBXGpNkiS_T46_idPR-107" value="Открыть приложение" style="strokeWidth=2;html=1;shape=mxgraph.flowchart.terminator;whiteSpace=wrap;" vertex="1" parent="1">
          <mxGeometry x="-1130" y="70" width="110" height="60" as="geometry" />
        </mxCell>
        <mxCell id="6nzBXGpNkiS_T46_idPR-112" value="" style="edgeStyle=orthogonalEdgeStyle;rounded=0;orthogonalLoop=1;jettySize=auto;html=1;" edge="1" parent="1" source="6nzBXGpNkiS_T46_idPR-108" target="6nzBXGpNkiS_T46_idPR-111">
          <mxGeometry relative="1" as="geometry" />
        </mxCell>
        <mxCell id="6nzBXGpNkiS_T46_idPR-108" value="Загружается вкладка &quot;Меню&quot;" style="rounded=0;whiteSpace=wrap;html=1;" vertex="1" parent="1">
          <mxGeometry x="-1135" y="172" width="120" height="60" as="geometry" />
        </mxCell>
        <mxCell id="6nzBXGpNkiS_T46_idPR-117" value="" style="edgeStyle=orthogonalEdgeStyle;rounded=0;orthogonalLoop=1;jettySize=auto;html=1;" edge="1" parent="1" source="6nzBXGpNkiS_T46_idPR-110" target="6nzBXGpNkiS_T46_idPR-116">
          <mxGeometry relative="1" as="geometry" />
        </mxCell>
        <mxCell id="6nzBXGpNkiS_T46_idPR-110" value="Таблица продуктов" style="strokeWidth=2;html=1;shape=mxgraph.flowchart.database;whiteSpace=wrap;" vertex="1" parent="1">
          <mxGeometry x="-1110" y="485.38" width="70" height="90" as="geometry" />
        </mxCell>
        <mxCell id="6nzBXGpNkiS_T46_idPR-114" value="" style="edgeStyle=orthogonalEdgeStyle;rounded=0;orthogonalLoop=1;jettySize=auto;html=1;" edge="1" parent="1" source="6nzBXGpNkiS_T46_idPR-111" target="6nzBXGpNkiS_T46_idPR-113">
          <mxGeometry relative="1" as="geometry" />
        </mxCell>
        <mxCell id="6nzBXGpNkiS_T46_idPR-111" value="Проверяется, какая категория товаров выбрана" style="rounded=0;whiteSpace=wrap;html=1;" vertex="1" parent="1">
          <mxGeometry x="-1135" y="270" width="120" height="60" as="geometry" />
        </mxCell>
        <mxCell id="6nzBXGpNkiS_T46_idPR-115" value="" style="edgeStyle=orthogonalEdgeStyle;rounded=0;orthogonalLoop=1;jettySize=auto;html=1;" edge="1" parent="1" source="6nzBXGpNkiS_T46_idPR-113" target="6nzBXGpNkiS_T46_idPR-110">
          <mxGeometry relative="1" as="geometry" />
        </mxCell>
        <mxCell id="6nzBXGpNkiS_T46_idPR-113" value="Категория товаров" style="shape=parallelogram;perimeter=parallelogramPerimeter;whiteSpace=wrap;html=1;fixedSize=1;" vertex="1" parent="1">
          <mxGeometry x="-1145" y="380" width="140" height="60" as="geometry" />
        </mxCell>
        <mxCell id="6nzBXGpNkiS_T46_idPR-119" value="" style="edgeStyle=orthogonalEdgeStyle;rounded=0;orthogonalLoop=1;jettySize=auto;html=1;" edge="1" parent="1" source="6nzBXGpNkiS_T46_idPR-116" target="6nzBXGpNkiS_T46_idPR-118">
          <mxGeometry relative="1" as="geometry" />
        </mxCell>
        <mxCell id="6nzBXGpNkiS_T46_idPR-116" value="Отображаются полученные продукты" style="rounded=0;whiteSpace=wrap;html=1;" vertex="1" parent="1">
          <mxGeometry x="-1135" y="630" width="120" height="60" as="geometry" />
        </mxCell>
        <mxCell id="6nzBXGpNkiS_T46_idPR-121" value="" style="edgeStyle=orthogonalEdgeStyle;rounded=0;orthogonalLoop=1;jettySize=auto;html=1;" edge="1" parent="1" source="6nzBXGpNkiS_T46_idPR-118" target="6nzBXGpNkiS_T46_idPR-120">
          <mxGeometry relative="1" as="geometry" />
        </mxCell>
        <mxCell id="6nzBXGpNkiS_T46_idPR-154" value="" style="edgeStyle=orthogonalEdgeStyle;rounded=0;orthogonalLoop=1;jettySize=auto;html=1;" edge="1" parent="1" source="6nzBXGpNkiS_T46_idPR-118" target="6nzBXGpNkiS_T46_idPR-153">
          <mxGeometry relative="1" as="geometry" />
        </mxCell>
        <mxCell id="6nzBXGpNkiS_T46_idPR-118" value="Остаться в текущей вкладке?" style="rhombus;whiteSpace=wrap;html=1;" vertex="1" parent="1">
          <mxGeometry x="-1155" y="740" width="160" height="150" as="geometry" />
        </mxCell>
        <mxCell id="6nzBXGpNkiS_T46_idPR-124" value="" style="edgeStyle=orthogonalEdgeStyle;rounded=0;orthogonalLoop=1;jettySize=auto;html=1;" edge="1" parent="1" source="6nzBXGpNkiS_T46_idPR-120" target="6nzBXGpNkiS_T46_idPR-123">
          <mxGeometry relative="1" as="geometry" />
        </mxCell>
        <mxCell id="6nzBXGpNkiS_T46_idPR-128" value="" style="edgeStyle=orthogonalEdgeStyle;rounded=0;orthogonalLoop=1;jettySize=auto;html=1;" edge="1" parent="1" source="6nzBXGpNkiS_T46_idPR-120" target="6nzBXGpNkiS_T46_idPR-127">
          <mxGeometry relative="1" as="geometry" />
        </mxCell>
        <mxCell id="6nzBXGpNkiS_T46_idPR-120" value="Выбрать другую категорию товаров?" style="rhombus;whiteSpace=wrap;html=1;" vertex="1" parent="1">
          <mxGeometry x="-1150" y="954.06" width="150" height="150" as="geometry" />
        </mxCell>
        <mxCell id="6nzBXGpNkiS_T46_idPR-122" value="Да" style="text;html=1;align=center;verticalAlign=middle;whiteSpace=wrap;rounded=0;" vertex="1" parent="1">
          <mxGeometry x="-1090" y="890" width="60" height="30" as="geometry" />
        </mxCell>
        <mxCell id="6nzBXGpNkiS_T46_idPR-123" value="Нажать на соответствующую кнопку в панели категорий" style="verticalLabelPosition=middle;verticalAlign=middle;html=1;shape=trapezoid;perimeter=trapezoidPerimeter;whiteSpace=wrap;size=0.23;arcSize=10;flipV=1;labelPosition=center;align=center;" vertex="1" parent="1">
          <mxGeometry x="-1142.5" y="1149.87" width="135" height="70.13" as="geometry" />
        </mxCell>
        <mxCell id="6nzBXGpNkiS_T46_idPR-125" value="Да" style="text;html=1;align=center;verticalAlign=middle;whiteSpace=wrap;rounded=0;" vertex="1" parent="1">
          <mxGeometry x="-1090" y="1098.48" width="60" height="30" as="geometry" />
        </mxCell>
        <mxCell id="6nzBXGpNkiS_T46_idPR-126" value="" style="endArrow=classic;html=1;rounded=0;exitX=0;exitY=0.5;exitDx=0;exitDy=0;entryX=0;entryY=0.5;entryDx=0;entryDy=0;" edge="1" parent="1" source="6nzBXGpNkiS_T46_idPR-123" target="6nzBXGpNkiS_T46_idPR-111">
          <mxGeometry width="50" height="50" relative="1" as="geometry">
            <mxPoint x="-1090" y="1080" as="sourcePoint" />
            <mxPoint x="-1040" y="1030" as="targetPoint" />
            <Array as="points">
              <mxPoint x="-1240" y="1185" />
              <mxPoint x="-1240" y="300" />
            </Array>
          </mxGeometry>
        </mxCell>
        <mxCell id="6nzBXGpNkiS_T46_idPR-132" value="" style="edgeStyle=orthogonalEdgeStyle;rounded=0;orthogonalLoop=1;jettySize=auto;html=1;" edge="1" parent="1" source="6nzBXGpNkiS_T46_idPR-127" target="6nzBXGpNkiS_T46_idPR-131">
          <mxGeometry relative="1" as="geometry" />
        </mxCell>
        <mxCell id="6nzBXGpNkiS_T46_idPR-127" value="Нажать на интересующий товар" style="verticalLabelPosition=middle;verticalAlign=middle;html=1;shape=trapezoid;perimeter=trapezoidPerimeter;whiteSpace=wrap;size=0.23;arcSize=10;flipV=1;labelPosition=center;align=center;" vertex="1" parent="1">
          <mxGeometry x="-920" y="999.06" width="110" height="60" as="geometry" />
        </mxCell>
        <mxCell id="6nzBXGpNkiS_T46_idPR-129" value="Нет" style="text;html=1;align=center;verticalAlign=middle;whiteSpace=wrap;rounded=0;" vertex="1" parent="1">
          <mxGeometry x="-1007.5" y="1000" width="60" height="30" as="geometry" />
        </mxCell>
        <mxCell id="6nzBXGpNkiS_T46_idPR-135" value="" style="edgeStyle=orthogonalEdgeStyle;rounded=0;orthogonalLoop=1;jettySize=auto;html=1;" edge="1" parent="1" source="6nzBXGpNkiS_T46_idPR-131" target="6nzBXGpNkiS_T46_idPR-133">
          <mxGeometry relative="1" as="geometry" />
        </mxCell>
        <mxCell id="6nzBXGpNkiS_T46_idPR-131" value="Загружается подробная информация о товаре" style="rounded=0;whiteSpace=wrap;html=1;" vertex="1" parent="1">
          <mxGeometry x="-750" y="999.06" width="120" height="60" as="geometry" />
        </mxCell>
        <mxCell id="6nzBXGpNkiS_T46_idPR-137" value="" style="edgeStyle=orthogonalEdgeStyle;rounded=0;orthogonalLoop=1;jettySize=auto;html=1;" edge="1" parent="1" source="6nzBXGpNkiS_T46_idPR-133" target="6nzBXGpNkiS_T46_idPR-136">
          <mxGeometry relative="1" as="geometry" />
        </mxCell>
        <mxCell id="6nzBXGpNkiS_T46_idPR-142" value="" style="edgeStyle=orthogonalEdgeStyle;rounded=0;orthogonalLoop=1;jettySize=auto;html=1;" edge="1" parent="1" source="6nzBXGpNkiS_T46_idPR-133" target="6nzBXGpNkiS_T46_idPR-141">
          <mxGeometry relative="1" as="geometry" />
        </mxCell>
        <mxCell id="6nzBXGpNkiS_T46_idPR-133" value="Пользователь авторизован?" style="rhombus;whiteSpace=wrap;html=1;" vertex="1" parent="1">
          <mxGeometry x="-560" y="974.06" width="110" height="110" as="geometry" />
        </mxCell>
        <mxCell id="6nzBXGpNkiS_T46_idPR-140" value="" style="edgeStyle=orthogonalEdgeStyle;rounded=0;orthogonalLoop=1;jettySize=auto;html=1;" edge="1" parent="1" source="6nzBXGpNkiS_T46_idPR-136" target="6nzBXGpNkiS_T46_idPR-139">
          <mxGeometry relative="1" as="geometry" />
        </mxCell>
        <mxCell id="6nzBXGpNkiS_T46_idPR-136" value="Нажать на любую другую вкладку" style="verticalLabelPosition=middle;verticalAlign=middle;html=1;shape=trapezoid;perimeter=trapezoidPerimeter;whiteSpace=wrap;size=0.23;arcSize=10;flipV=1;labelPosition=center;align=center;" vertex="1" parent="1">
          <mxGeometry x="-570" y="1128.48" width="130" height="60" as="geometry" />
        </mxCell>
        <mxCell id="6nzBXGpNkiS_T46_idPR-138" value="Нет" style="text;html=1;align=center;verticalAlign=middle;whiteSpace=wrap;rounded=0;" vertex="1" parent="1">
          <mxGeometry x="-520" y="1084.06" width="60" height="30" as="geometry" />
        </mxCell>
        <mxCell id="6nzBXGpNkiS_T46_idPR-139" value="" style="verticalLabelPosition=bottom;verticalAlign=top;html=1;shape=mxgraph.flowchart.on-page_reference;" vertex="1" parent="1">
          <mxGeometry x="-535" y="1230" width="60" height="60" as="geometry" />
        </mxCell>
        <mxCell id="6nzBXGpNkiS_T46_idPR-147" value="" style="edgeStyle=orthogonalEdgeStyle;rounded=0;orthogonalLoop=1;jettySize=auto;html=1;" edge="1" parent="1" source="6nzBXGpNkiS_T46_idPR-141" target="6nzBXGpNkiS_T46_idPR-146">
          <mxGeometry relative="1" as="geometry" />
        </mxCell>
        <mxCell id="6nzBXGpNkiS_T46_idPR-141" value="Добавить товар в корзину?" style="strokeWidth=1;html=1;shape=mxgraph.flowchart.decision;whiteSpace=wrap;strokeColor=default;" vertex="1" parent="1">
          <mxGeometry x="-390" y="968.5899999999999" width="120.04" height="120.94" as="geometry" />
        </mxCell>
        <mxCell id="6nzBXGpNkiS_T46_idPR-143" value="Да" style="text;html=1;align=center;verticalAlign=middle;whiteSpace=wrap;rounded=0;" vertex="1" parent="1">
          <mxGeometry x="-470" y="1000" width="60" height="30" as="geometry" />
        </mxCell>
        <mxCell id="6nzBXGpNkiS_T46_idPR-144" value="" style="endArrow=none;startArrow=classic;html=1;rounded=0;entryX=0.5;entryY=1;entryDx=0;entryDy=0;entryPerimeter=0;exitX=1;exitY=0.5;exitDx=0;exitDy=0;startFill=1;" edge="1" parent="1" source="6nzBXGpNkiS_T46_idPR-136" target="6nzBXGpNkiS_T46_idPR-141">
          <mxGeometry width="50" height="50" relative="1" as="geometry">
            <mxPoint x="-540" y="1140" as="sourcePoint" />
            <mxPoint x="-490" y="1090" as="targetPoint" />
            <Array as="points">
              <mxPoint x="-330" y="1158" />
            </Array>
          </mxGeometry>
        </mxCell>
        <mxCell id="6nzBXGpNkiS_T46_idPR-145" value="Нет" style="text;html=1;align=center;verticalAlign=middle;whiteSpace=wrap;rounded=0;" vertex="1" parent="1">
          <mxGeometry x="-340.1" y="1084.06" width="60" height="30" as="geometry" />
        </mxCell>
        <mxCell id="6nzBXGpNkiS_T46_idPR-150" value="" style="edgeStyle=orthogonalEdgeStyle;rounded=0;orthogonalLoop=1;jettySize=auto;html=1;" edge="1" parent="1" source="6nzBXGpNkiS_T46_idPR-146" target="6nzBXGpNkiS_T46_idPR-149">
          <mxGeometry relative="1" as="geometry" />
        </mxCell>
        <mxCell id="6nzBXGpNkiS_T46_idPR-146" value="Выбрать количество товара" style="verticalLabelPosition=middle;verticalAlign=middle;html=1;shape=trapezoid;perimeter=trapezoidPerimeter;whiteSpace=wrap;size=0.23;arcSize=10;flipV=1;labelPosition=center;align=center;" vertex="1" parent="1">
          <mxGeometry x="-235.34" y="999.06" width="145.34" height="60" as="geometry" />
        </mxCell>
        <mxCell id="6nzBXGpNkiS_T46_idPR-148" value="Да" style="text;html=1;align=center;verticalAlign=middle;whiteSpace=wrap;rounded=0;" vertex="1" parent="1">
          <mxGeometry x="-295.34000000000003" y="1000" width="60" height="30" as="geometry" />
        </mxCell>
        <mxCell id="6nzBXGpNkiS_T46_idPR-149" value="Нажать на кнопку &quot;Добавить в корзину&quot;" style="verticalLabelPosition=middle;verticalAlign=middle;html=1;shape=trapezoid;perimeter=trapezoidPerimeter;whiteSpace=wrap;size=0.23;arcSize=10;flipV=1;labelPosition=center;align=center;" vertex="1" parent="1">
          <mxGeometry x="-236.51" y="1108" width="147.67" height="61" as="geometry" />
        </mxCell>
        <mxCell id="6nzBXGpNkiS_T46_idPR-151" value="" style="endArrow=classic;html=1;rounded=0;exitX=0;exitY=0.5;exitDx=0;exitDy=0;" edge="1" parent="1" source="6nzBXGpNkiS_T46_idPR-149">
          <mxGeometry width="50" height="50" relative="1" as="geometry">
            <mxPoint x="-540" y="1140" as="sourcePoint" />
            <mxPoint x="-330" y="1139" as="targetPoint" />
          </mxGeometry>
        </mxCell>
        <mxCell id="6nzBXGpNkiS_T46_idPR-153" value="" style="verticalLabelPosition=bottom;verticalAlign=top;html=1;shape=mxgraph.flowchart.on-page_reference;" vertex="1" parent="1">
          <mxGeometry x="-920" y="785" width="60" height="60" as="geometry" />
        </mxCell>
        <mxCell id="6nzBXGpNkiS_T46_idPR-155" value="Нет" style="text;html=1;align=center;verticalAlign=middle;whiteSpace=wrap;rounded=0;" vertex="1" parent="1">
          <mxGeometry x="-1007.5" y="785" width="60" height="30" as="geometry" />
        </mxCell>
        <mxCell id="6nzBXGpNkiS_T46_idPR-156" value="" style="verticalLabelPosition=bottom;verticalAlign=top;html=1;shape=mxgraph.flowchart.on-page_reference;" vertex="1" parent="1">
          <mxGeometry x="-589" y="80" width="60" height="60" as="geometry" />
        </mxCell>
        <mxCell id="6nzBXGpNkiS_T46_idPR-157" value="1" style="text;html=1;align=center;verticalAlign=middle;whiteSpace=wrap;rounded=0;" vertex="1" parent="1">
          <mxGeometry x="-920" y="800" width="60" height="30" as="geometry" />
        </mxCell>
        <mxCell id="6nzBXGpNkiS_T46_idPR-158" value="1" style="text;html=1;align=center;verticalAlign=middle;whiteSpace=wrap;rounded=0;" vertex="1" parent="1">
          <mxGeometry x="-535" y="1243.29" width="60" height="30" as="geometry" />
        </mxCell>
        <mxCell id="6nzBXGpNkiS_T46_idPR-159" value="1" style="text;html=1;align=center;verticalAlign=middle;whiteSpace=wrap;rounded=0;" vertex="1" parent="1">
          <mxGeometry x="-589" y="95" width="60" height="30" as="geometry" />
        </mxCell>
        <mxCell id="6nzBXGpNkiS_T46_idPR-160" value="" style="verticalLabelPosition=bottom;verticalAlign=top;html=1;shape=mxgraph.flowchart.summing_function;" vertex="1" parent="1">
          <mxGeometry x="-594" y="176.8" width="70" height="70" as="geometry" />
        </mxCell>
        <mxCell id="6nzBXGpNkiS_T46_idPR-162" value="" style="endArrow=classic;html=1;rounded=0;exitX=0.5;exitY=1;exitDx=0;exitDy=0;exitPerimeter=0;entryX=0.5;entryY=0;entryDx=0;entryDy=0;entryPerimeter=0;" edge="1" parent="1" source="6nzBXGpNkiS_T46_idPR-156" target="6nzBXGpNkiS_T46_idPR-160">
          <mxGeometry width="50" height="50" relative="1" as="geometry">
            <mxPoint x="-560" y="370" as="sourcePoint" />
            <mxPoint x="-510" y="320" as="targetPoint" />
          </mxGeometry>
        </mxCell>
        <mxCell id="6nzBXGpNkiS_T46_idPR-163" value="Нажать на вкладку &quot;Меню&quot;" style="verticalLabelPosition=middle;verticalAlign=middle;html=1;shape=trapezoid;perimeter=trapezoidPerimeter;whiteSpace=wrap;size=0.23;arcSize=10;flipV=1;labelPosition=center;align=center;" vertex="1" parent="1">
          <mxGeometry x="-934.49" y="350" width="110" height="60" as="geometry" />
        </mxCell>
        <mxCell id="6nzBXGpNkiS_T46_idPR-245" value="" style="edgeStyle=orthogonalEdgeStyle;rounded=0;orthogonalLoop=1;jettySize=auto;html=1;" edge="1" parent="1" source="6nzBXGpNkiS_T46_idPR-164" target="6nzBXGpNkiS_T46_idPR-244">
          <mxGeometry relative="1" as="geometry" />
        </mxCell>
        <mxCell id="6nzBXGpNkiS_T46_idPR-164" value="Нажать на вкладку &quot;Рестораны&quot;" style="verticalLabelPosition=middle;verticalAlign=middle;html=1;shape=trapezoid;perimeter=trapezoidPerimeter;whiteSpace=wrap;size=0.23;arcSize=10;flipV=1;labelPosition=center;align=center;" vertex="1" parent="1">
          <mxGeometry x="-774.49" y="350" width="110" height="60" as="geometry" />
        </mxCell>
        <mxCell id="6nzBXGpNkiS_T46_idPR-252" value="" style="edgeStyle=orthogonalEdgeStyle;rounded=0;orthogonalLoop=1;jettySize=auto;html=1;" edge="1" parent="1" source="6nzBXGpNkiS_T46_idPR-165" target="6nzBXGpNkiS_T46_idPR-251">
          <mxGeometry relative="1" as="geometry" />
        </mxCell>
        <mxCell id="6nzBXGpNkiS_T46_idPR-165" value="Нажать на вкладку &quot;Корзина&quot;" style="verticalLabelPosition=middle;verticalAlign=middle;html=1;shape=trapezoid;perimeter=trapezoidPerimeter;whiteSpace=wrap;size=0.23;arcSize=10;flipV=1;labelPosition=center;align=center;" vertex="1" parent="1">
          <mxGeometry x="-613.8199999999999" y="350" width="110" height="60" as="geometry" />
        </mxCell>
        <mxCell id="6nzBXGpNkiS_T46_idPR-273" value="" style="edgeStyle=orthogonalEdgeStyle;rounded=0;orthogonalLoop=1;jettySize=auto;html=1;" edge="1" parent="1" source="6nzBXGpNkiS_T46_idPR-166" target="6nzBXGpNkiS_T46_idPR-272">
          <mxGeometry relative="1" as="geometry" />
        </mxCell>
        <mxCell id="6nzBXGpNkiS_T46_idPR-166" value="Нажать на вкладку &quot;История заказов&quot;" style="verticalLabelPosition=middle;verticalAlign=middle;html=1;shape=trapezoid;perimeter=trapezoidPerimeter;whiteSpace=wrap;size=0.23;arcSize=10;flipV=1;labelPosition=center;align=center;" vertex="1" parent="1">
          <mxGeometry x="-454.49" y="350" width="110" height="60" as="geometry" />
        </mxCell>
        <mxCell id="6nzBXGpNkiS_T46_idPR-168" value="" style="endArrow=classic;html=1;rounded=0;exitX=0.5;exitY=1;exitDx=0;exitDy=0;exitPerimeter=0;entryX=0.5;entryY=0;entryDx=0;entryDy=0;" edge="1" parent="1" source="6nzBXGpNkiS_T46_idPR-160" target="6nzBXGpNkiS_T46_idPR-165">
          <mxGeometry width="50" height="50" relative="1" as="geometry">
            <mxPoint x="-500" y="410" as="sourcePoint" />
            <mxPoint x="-450" y="360" as="targetPoint" />
          </mxGeometry>
        </mxCell>
        <mxCell id="6nzBXGpNkiS_T46_idPR-169" value="" style="endArrow=classic;html=1;rounded=0;entryX=0.5;entryY=0;entryDx=0;entryDy=0;" edge="1" parent="1">
          <mxGeometry width="50" height="50" relative="1" as="geometry">
            <mxPoint x="-441" y="300" as="sourcePoint" />
            <mxPoint x="-880.4899999999998" y="350" as="targetPoint" />
            <Array as="points">
              <mxPoint x="-880" y="300" />
            </Array>
          </mxGeometry>
        </mxCell>
        <mxCell id="6nzBXGpNkiS_T46_idPR-170" value="" style="endArrow=classic;html=1;rounded=0;entryX=0.5;entryY=0;entryDx=0;entryDy=0;" edge="1" parent="1" target="6nzBXGpNkiS_T46_idPR-164">
          <mxGeometry width="50" height="50" relative="1" as="geometry">
            <mxPoint x="-719" y="300" as="sourcePoint" />
            <mxPoint x="-450" y="360" as="targetPoint" />
          </mxGeometry>
        </mxCell>
        <mxCell id="6nzBXGpNkiS_T46_idPR-171" value="" style="endArrow=classic;html=1;rounded=0;entryX=0.5;entryY=0;entryDx=0;entryDy=0;" edge="1" parent="1" target="6nzBXGpNkiS_T46_idPR-172">
          <mxGeometry width="50" height="50" relative="1" as="geometry">
            <mxPoint x="-440" y="300" as="sourcePoint" />
            <mxPoint x="-450" y="360" as="targetPoint" />
            <Array as="points">
              <mxPoint x="-280" y="300" />
              <mxPoint x="-252" y="300" />
            </Array>
          </mxGeometry>
        </mxCell>
        <mxCell id="6nzBXGpNkiS_T46_idPR-181" value="" style="edgeStyle=orthogonalEdgeStyle;rounded=0;orthogonalLoop=1;jettySize=auto;html=1;" edge="1" parent="1" source="6nzBXGpNkiS_T46_idPR-172" target="6nzBXGpNkiS_T46_idPR-180">
          <mxGeometry relative="1" as="geometry" />
        </mxCell>
        <mxCell id="6nzBXGpNkiS_T46_idPR-172" value="Пользователь авторизован?" style="rhombus;whiteSpace=wrap;html=1;" vertex="1" parent="1">
          <mxGeometry x="-312.33" y="350" width="120" height="120" as="geometry" />
        </mxCell>
        <mxCell id="6nzBXGpNkiS_T46_idPR-173" value="" style="endArrow=classic;html=1;rounded=0;entryX=0.5;entryY=0;entryDx=0;entryDy=0;" edge="1" parent="1" target="6nzBXGpNkiS_T46_idPR-166">
          <mxGeometry width="50" height="50" relative="1" as="geometry">
            <mxPoint x="-399" y="300" as="sourcePoint" />
            <mxPoint x="-450" y="360" as="targetPoint" />
          </mxGeometry>
        </mxCell>
        <mxCell id="6nzBXGpNkiS_T46_idPR-178" value="" style="edgeStyle=orthogonalEdgeStyle;rounded=0;orthogonalLoop=1;jettySize=auto;html=1;" edge="1" parent="1" source="6nzBXGpNkiS_T46_idPR-174" target="6nzBXGpNkiS_T46_idPR-177">
          <mxGeometry relative="1" as="geometry" />
        </mxCell>
        <mxCell id="6nzBXGpNkiS_T46_idPR-174" value="&quot;Добро пожаловать, {имя пользователя}&quot;" style="strokeWidth=2;html=1;shape=mxgraph.flowchart.display;whiteSpace=wrap;" vertex="1" parent="1">
          <mxGeometry x="-150" y="375" width="110" height="70" as="geometry" />
        </mxCell>
        <mxCell id="6nzBXGpNkiS_T46_idPR-175" value="" style="endArrow=classic;html=1;rounded=0;exitX=1;exitY=0.5;exitDx=0;exitDy=0;entryX=0;entryY=0.5;entryDx=0;entryDy=0;entryPerimeter=0;" edge="1" parent="1" source="6nzBXGpNkiS_T46_idPR-172" target="6nzBXGpNkiS_T46_idPR-174">
          <mxGeometry width="50" height="50" relative="1" as="geometry">
            <mxPoint x="-500" y="510" as="sourcePoint" />
            <mxPoint x="-450" y="460" as="targetPoint" />
          </mxGeometry>
        </mxCell>
        <mxCell id="6nzBXGpNkiS_T46_idPR-176" value="Да" style="text;html=1;align=center;verticalAlign=middle;whiteSpace=wrap;rounded=0;" vertex="1" parent="1">
          <mxGeometry x="-213" y="382" width="60" height="30" as="geometry" />
        </mxCell>
        <mxCell id="6nzBXGpNkiS_T46_idPR-177" value="" style="verticalLabelPosition=bottom;verticalAlign=top;html=1;shape=mxgraph.flowchart.on-page_reference;" vertex="1" parent="1">
          <mxGeometry x="-125" y="489.87" width="60" height="60" as="geometry" />
        </mxCell>
        <mxCell id="6nzBXGpNkiS_T46_idPR-179" value="1" style="text;html=1;align=center;verticalAlign=middle;whiteSpace=wrap;rounded=0;" vertex="1" parent="1">
          <mxGeometry x="-125" y="504.87" width="60" height="30" as="geometry" />
        </mxCell>
        <mxCell id="6nzBXGpNkiS_T46_idPR-184" value="" style="edgeStyle=orthogonalEdgeStyle;rounded=0;orthogonalLoop=1;jettySize=auto;html=1;entryX=0.5;entryY=0;entryDx=0;entryDy=0;" edge="1" parent="1" source="6nzBXGpNkiS_T46_idPR-180" target="6nzBXGpNkiS_T46_idPR-198">
          <mxGeometry relative="1" as="geometry">
            <mxPoint x="-240" y="640" as="targetPoint" />
          </mxGeometry>
        </mxCell>
        <mxCell id="6nzBXGpNkiS_T46_idPR-180" value="Нажать на вкладку &quot;Вход&quot;" style="verticalLabelPosition=middle;verticalAlign=middle;html=1;shape=trapezoid;perimeter=trapezoidPerimeter;whiteSpace=wrap;size=0.23;arcSize=10;flipV=1;labelPosition=center;align=center;" vertex="1" parent="1">
          <mxGeometry x="-307.33" y="516.45" width="110" height="60" as="geometry" />
        </mxCell>
        <mxCell id="6nzBXGpNkiS_T46_idPR-182" value="Нет" style="text;html=1;align=center;verticalAlign=middle;whiteSpace=wrap;rounded=0;" vertex="1" parent="1">
          <mxGeometry x="-266.34000000000003" y="466" width="60" height="30" as="geometry" />
        </mxCell>
        <mxCell id="6nzBXGpNkiS_T46_idPR-188" value="" style="edgeStyle=orthogonalEdgeStyle;rounded=0;orthogonalLoop=1;jettySize=auto;html=1;" edge="1" parent="1" source="6nzBXGpNkiS_T46_idPR-183" target="6nzBXGpNkiS_T46_idPR-185">
          <mxGeometry relative="1" as="geometry" />
        </mxCell>
        <mxCell id="6nzBXGpNkiS_T46_idPR-189" value="" style="edgeStyle=orthogonalEdgeStyle;rounded=0;orthogonalLoop=1;jettySize=auto;html=1;" edge="1" parent="1" source="6nzBXGpNkiS_T46_idPR-183" target="6nzBXGpNkiS_T46_idPR-186">
          <mxGeometry relative="1" as="geometry" />
        </mxCell>
        <mxCell id="6nzBXGpNkiS_T46_idPR-183" value="У пользователя существует аккаунт?" style="rhombus;whiteSpace=wrap;html=1;" vertex="1" parent="1">
          <mxGeometry x="-317.25" y="720" width="130" height="130" as="geometry" />
        </mxCell>
        <mxCell id="6nzBXGpNkiS_T46_idPR-185" value="" style="verticalLabelPosition=bottom;verticalAlign=top;html=1;shape=mxgraph.flowchart.on-page_reference;" vertex="1" parent="1">
          <mxGeometry x="-125" y="755" width="60" height="60" as="geometry" />
        </mxCell>
        <mxCell id="6nzBXGpNkiS_T46_idPR-234" value="" style="edgeStyle=orthogonalEdgeStyle;rounded=0;orthogonalLoop=1;jettySize=auto;html=1;" edge="1" parent="1" source="6nzBXGpNkiS_T46_idPR-186" target="6nzBXGpNkiS_T46_idPR-232">
          <mxGeometry relative="1" as="geometry" />
        </mxCell>
        <mxCell id="6nzBXGpNkiS_T46_idPR-186" value="" style="verticalLabelPosition=bottom;verticalAlign=top;html=1;shape=mxgraph.flowchart.on-page_reference;" vertex="1" parent="1">
          <mxGeometry x="-282.33" y="890" width="60" height="60" as="geometry" />
        </mxCell>
        <mxCell id="6nzBXGpNkiS_T46_idPR-190" value="Да" style="text;html=1;align=center;verticalAlign=middle;whiteSpace=wrap;rounded=0;" vertex="1" parent="1">
          <mxGeometry x="-295.34" y="850" width="60" height="30" as="geometry" />
        </mxCell>
        <mxCell id="6nzBXGpNkiS_T46_idPR-191" value="Нет" style="text;html=1;align=center;verticalAlign=middle;whiteSpace=wrap;rounded=0;" vertex="1" parent="1">
          <mxGeometry x="-200.33999999999997" y="755" width="60" height="30" as="geometry" />
        </mxCell>
        <mxCell id="6nzBXGpNkiS_T46_idPR-192" value="" style="endArrow=classic;html=1;rounded=0;exitX=0.5;exitY=0;exitDx=0;exitDy=0;exitPerimeter=0;" edge="1" parent="1" source="6nzBXGpNkiS_T46_idPR-185">
          <mxGeometry width="50" height="50" relative="1" as="geometry">
            <mxPoint x="-390" y="780" as="sourcePoint" />
            <mxPoint x="-250" y="600" as="targetPoint" />
            <Array as="points">
              <mxPoint x="-95" y="600" />
            </Array>
          </mxGeometry>
        </mxCell>
        <mxCell id="6nzBXGpNkiS_T46_idPR-193" value="2" style="text;html=1;align=center;verticalAlign=middle;whiteSpace=wrap;rounded=0;" vertex="1" parent="1">
          <mxGeometry x="-110" y="770" width="30" height="30" as="geometry" />
        </mxCell>
        <mxCell id="6nzBXGpNkiS_T46_idPR-194" value="3" style="text;html=1;align=center;verticalAlign=middle;whiteSpace=wrap;rounded=0;" vertex="1" parent="1">
          <mxGeometry x="-267.33" y="905" width="30" height="30" as="geometry" />
        </mxCell>
        <mxCell id="6nzBXGpNkiS_T46_idPR-201" value="" style="edgeStyle=orthogonalEdgeStyle;rounded=0;orthogonalLoop=1;jettySize=auto;html=1;entryX=0.505;entryY=0.142;entryDx=0;entryDy=0;entryPerimeter=0;" edge="1" parent="1" source="6nzBXGpNkiS_T46_idPR-195" target="6nzBXGpNkiS_T46_idPR-200">
          <mxGeometry relative="1" as="geometry" />
        </mxCell>
        <mxCell id="6nzBXGpNkiS_T46_idPR-195" value="" style="verticalLabelPosition=bottom;verticalAlign=top;html=1;shape=mxgraph.flowchart.on-page_reference;" vertex="1" parent="1">
          <mxGeometry x="-2096.96" y="150" width="60" height="60" as="geometry" />
        </mxCell>
        <mxCell id="6nzBXGpNkiS_T46_idPR-196" value="2" style="text;html=1;align=center;verticalAlign=middle;whiteSpace=wrap;rounded=0;" vertex="1" parent="1">
          <mxGeometry x="-2096.96" y="165" width="60" height="30" as="geometry" />
        </mxCell>
        <mxCell id="6nzBXGpNkiS_T46_idPR-199" value="" style="edgeStyle=orthogonalEdgeStyle;rounded=0;orthogonalLoop=1;jettySize=auto;html=1;" edge="1" parent="1" source="6nzBXGpNkiS_T46_idPR-198" target="6nzBXGpNkiS_T46_idPR-183">
          <mxGeometry relative="1" as="geometry" />
        </mxCell>
        <mxCell id="6nzBXGpNkiS_T46_idPR-198" value="Загружается вкладка &quot;Вход&quot;" style="rounded=0;whiteSpace=wrap;html=1;" vertex="1" parent="1">
          <mxGeometry x="-312.33000000000004" y="620" width="120" height="60" as="geometry" />
        </mxCell>
        <mxCell id="6nzBXGpNkiS_T46_idPR-203" value="" style="edgeStyle=orthogonalEdgeStyle;rounded=0;orthogonalLoop=1;jettySize=auto;html=1;" edge="1" parent="1" source="6nzBXGpNkiS_T46_idPR-200" target="6nzBXGpNkiS_T46_idPR-202">
          <mxGeometry relative="1" as="geometry" />
        </mxCell>
        <mxCell id="6nzBXGpNkiS_T46_idPR-200" value="Пользователь заполняет поля &quot;Логин&quot;, &quot;Пароль&quot;, &quot;Подтверждение пароля&quot;" style="html=1;strokeWidth=2;shape=manualInput;whiteSpace=wrap;rounded=1;size=26;arcSize=11;" vertex="1" parent="1">
          <mxGeometry x="-2146.96" y="238" width="160" height="80" as="geometry" />
        </mxCell>
        <mxCell id="6nzBXGpNkiS_T46_idPR-205" value="" style="edgeStyle=orthogonalEdgeStyle;rounded=0;orthogonalLoop=1;jettySize=auto;html=1;" edge="1" parent="1" source="6nzBXGpNkiS_T46_idPR-202" target="6nzBXGpNkiS_T46_idPR-204">
          <mxGeometry relative="1" as="geometry" />
        </mxCell>
        <mxCell id="6nzBXGpNkiS_T46_idPR-202" value="Нажать на кнопку &quot;Зарегистрироваться&quot;" style="verticalLabelPosition=middle;verticalAlign=middle;html=1;shape=trapezoid;perimeter=trapezoidPerimeter;whiteSpace=wrap;size=0.23;arcSize=10;flipV=1;labelPosition=center;align=center;" vertex="1" parent="1">
          <mxGeometry x="-2146.96" y="360" width="160" height="60" as="geometry" />
        </mxCell>
        <mxCell id="6nzBXGpNkiS_T46_idPR-207" value="" style="edgeStyle=orthogonalEdgeStyle;rounded=0;orthogonalLoop=1;jettySize=auto;html=1;" edge="1" parent="1" source="6nzBXGpNkiS_T46_idPR-204" target="6nzBXGpNkiS_T46_idPR-206">
          <mxGeometry relative="1" as="geometry" />
        </mxCell>
        <mxCell id="6nzBXGpNkiS_T46_idPR-204" value="Имя пользователя, зашифрованный пароль" style="shape=parallelogram;perimeter=parallelogramPerimeter;whiteSpace=wrap;html=1;fixedSize=1;" vertex="1" parent="1">
          <mxGeometry x="-2134.7599999999998" y="462.3" width="135.6" height="60" as="geometry" />
        </mxCell>
        <mxCell id="6nzBXGpNkiS_T46_idPR-209" value="" style="edgeStyle=orthogonalEdgeStyle;rounded=0;orthogonalLoop=1;jettySize=auto;html=1;" edge="1" parent="1" source="6nzBXGpNkiS_T46_idPR-206" target="6nzBXGpNkiS_T46_idPR-208">
          <mxGeometry relative="1" as="geometry" />
        </mxCell>
        <mxCell id="6nzBXGpNkiS_T46_idPR-206" value="Таблица пользователей" style="shape=cylinder3;whiteSpace=wrap;html=1;boundedLbl=1;backgroundOutline=1;size=15;" vertex="1" parent="1">
          <mxGeometry x="-2096.96" y="563" width="60" height="80" as="geometry" />
        </mxCell>
        <mxCell id="6nzBXGpNkiS_T46_idPR-211" value="" style="edgeStyle=orthogonalEdgeStyle;rounded=0;orthogonalLoop=1;jettySize=auto;html=1;" edge="1" parent="1" source="6nzBXGpNkiS_T46_idPR-208" target="6nzBXGpNkiS_T46_idPR-210">
          <mxGeometry relative="1" as="geometry" />
        </mxCell>
        <mxCell id="6nzBXGpNkiS_T46_idPR-208" value="Имя пользователя занято?" style="rhombus;whiteSpace=wrap;html=1;" vertex="1" parent="1">
          <mxGeometry x="-2116.96" y="678" width="100" height="100" as="geometry" />
        </mxCell>
        <mxCell id="6nzBXGpNkiS_T46_idPR-210" value="&quot;Данный логин занят&quot;" style="strokeWidth=2;html=1;shape=mxgraph.flowchart.display;whiteSpace=wrap;" vertex="1" parent="1">
          <mxGeometry x="-1956.96" y="698" width="100" height="60" as="geometry" />
        </mxCell>
        <mxCell id="6nzBXGpNkiS_T46_idPR-212" value="Да" style="text;html=1;align=center;verticalAlign=middle;whiteSpace=wrap;rounded=0;" vertex="1" parent="1">
          <mxGeometry x="-2032.56" y="698" width="60" height="30" as="geometry" />
        </mxCell>
        <mxCell id="6nzBXGpNkiS_T46_idPR-213" value="" style="endArrow=classic;html=1;rounded=0;exitX=0.5;exitY=0;exitDx=0;exitDy=0;exitPerimeter=0;entryX=1;entryY=0.5;entryDx=0;entryDy=0;" edge="1" parent="1" source="6nzBXGpNkiS_T46_idPR-210" target="6nzBXGpNkiS_T46_idPR-196">
          <mxGeometry width="50" height="50" relative="1" as="geometry">
            <mxPoint x="-2056.96" y="498" as="sourcePoint" />
            <mxPoint x="-2006.96" y="448" as="targetPoint" />
            <Array as="points">
              <mxPoint x="-1906.96" y="180" />
            </Array>
          </mxGeometry>
        </mxCell>
        <mxCell id="6nzBXGpNkiS_T46_idPR-214" value="" style="verticalLabelPosition=bottom;verticalAlign=top;html=1;shape=mxgraph.flowchart.on-page_reference;" vertex="1" parent="1">
          <mxGeometry x="-1740" y="49.790000000000006" width="60" height="60" as="geometry" />
        </mxCell>
        <mxCell id="6nzBXGpNkiS_T46_idPR-217" value="" style="edgeStyle=orthogonalEdgeStyle;rounded=0;orthogonalLoop=1;jettySize=auto;html=1;entryX=0.494;entryY=0.184;entryDx=0;entryDy=0;entryPerimeter=0;" edge="1" parent="1" source="6nzBXGpNkiS_T46_idPR-215" target="6nzBXGpNkiS_T46_idPR-216">
          <mxGeometry relative="1" as="geometry" />
        </mxCell>
        <mxCell id="6nzBXGpNkiS_T46_idPR-215" value="3" style="text;html=1;align=center;verticalAlign=middle;whiteSpace=wrap;rounded=0;" vertex="1" parent="1">
          <mxGeometry x="-1740" y="64.79" width="60" height="30" as="geometry" />
        </mxCell>
        <mxCell id="6nzBXGpNkiS_T46_idPR-219" value="" style="edgeStyle=orthogonalEdgeStyle;rounded=0;orthogonalLoop=1;jettySize=auto;html=1;" edge="1" parent="1" source="6nzBXGpNkiS_T46_idPR-216" target="6nzBXGpNkiS_T46_idPR-218">
          <mxGeometry relative="1" as="geometry" />
        </mxCell>
        <mxCell id="6nzBXGpNkiS_T46_idPR-216" value="Пользователь заполняет поля &quot;Логин&quot;, &quot;Пароль&quot;" style="html=1;strokeWidth=2;shape=manualInput;whiteSpace=wrap;rounded=1;size=26;arcSize=11;" vertex="1" parent="1">
          <mxGeometry x="-1790" y="142.99" width="160" height="80" as="geometry" />
        </mxCell>
        <mxCell id="6nzBXGpNkiS_T46_idPR-221" value="" style="edgeStyle=orthogonalEdgeStyle;rounded=0;orthogonalLoop=1;jettySize=auto;html=1;" edge="1" parent="1" source="6nzBXGpNkiS_T46_idPR-218" target="6nzBXGpNkiS_T46_idPR-220">
          <mxGeometry relative="1" as="geometry" />
        </mxCell>
        <mxCell id="6nzBXGpNkiS_T46_idPR-218" value="Нажать на кнопку &quot;Войти&quot;" style="verticalLabelPosition=middle;verticalAlign=middle;html=1;shape=trapezoid;perimeter=trapezoidPerimeter;whiteSpace=wrap;size=0.23;arcSize=10;flipV=1;labelPosition=center;align=center;" vertex="1" parent="1">
          <mxGeometry x="-1790" y="262.99" width="160" height="60" as="geometry" />
        </mxCell>
        <mxCell id="6nzBXGpNkiS_T46_idPR-223" value="" style="edgeStyle=orthogonalEdgeStyle;rounded=0;orthogonalLoop=1;jettySize=auto;html=1;" edge="1" parent="1" source="6nzBXGpNkiS_T46_idPR-220" target="6nzBXGpNkiS_T46_idPR-222">
          <mxGeometry relative="1" as="geometry" />
        </mxCell>
        <mxCell id="6nzBXGpNkiS_T46_idPR-220" value="Имя пользователя, зашифрованный пароль" style="shape=parallelogram;perimeter=parallelogramPerimeter;whiteSpace=wrap;html=1;fixedSize=1;" vertex="1" parent="1">
          <mxGeometry x="-1777.8" y="358.37" width="135.6" height="60" as="geometry" />
        </mxCell>
        <mxCell id="6nzBXGpNkiS_T46_idPR-227" value="" style="edgeStyle=orthogonalEdgeStyle;rounded=0;orthogonalLoop=1;jettySize=auto;html=1;" edge="1" parent="1" source="6nzBXGpNkiS_T46_idPR-222" target="6nzBXGpNkiS_T46_idPR-224">
          <mxGeometry relative="1" as="geometry" />
        </mxCell>
        <mxCell id="6nzBXGpNkiS_T46_idPR-222" value="Таблица пользователей" style="shape=cylinder3;whiteSpace=wrap;html=1;boundedLbl=1;backgroundOutline=1;size=15;" vertex="1" parent="1">
          <mxGeometry x="-1740" y="462.99" width="60" height="80" as="geometry" />
        </mxCell>
        <mxCell id="6nzBXGpNkiS_T46_idPR-226" value="" style="edgeStyle=orthogonalEdgeStyle;rounded=0;orthogonalLoop=1;jettySize=auto;html=1;" edge="1" parent="1" source="6nzBXGpNkiS_T46_idPR-224" target="6nzBXGpNkiS_T46_idPR-225">
          <mxGeometry relative="1" as="geometry" />
        </mxCell>
        <mxCell id="6nzBXGpNkiS_T46_idPR-237" value="" style="edgeStyle=orthogonalEdgeStyle;rounded=0;orthogonalLoop=1;jettySize=auto;html=1;" edge="1" parent="1" source="6nzBXGpNkiS_T46_idPR-224" target="6nzBXGpNkiS_T46_idPR-236">
          <mxGeometry relative="1" as="geometry" />
        </mxCell>
        <mxCell id="6nzBXGpNkiS_T46_idPR-224" value="Имя пользователя существует?" style="rhombus;whiteSpace=wrap;html=1;" vertex="1" parent="1">
          <mxGeometry x="-1760" y="572.99" width="100" height="100" as="geometry" />
        </mxCell>
        <mxCell id="6nzBXGpNkiS_T46_idPR-230" value="" style="edgeStyle=orthogonalEdgeStyle;rounded=0;orthogonalLoop=1;jettySize=auto;html=1;" edge="1" parent="1" source="6nzBXGpNkiS_T46_idPR-225" target="6nzBXGpNkiS_T46_idPR-229">
          <mxGeometry relative="1" as="geometry" />
        </mxCell>
        <mxCell id="6nzBXGpNkiS_T46_idPR-225" value="Пароли совпадают?" style="rhombus;whiteSpace=wrap;html=1;" vertex="1" parent="1">
          <mxGeometry x="-1755" y="712.46" width="90" height="90" as="geometry" />
        </mxCell>
        <mxCell id="6nzBXGpNkiS_T46_idPR-228" value="Да" style="text;html=1;align=center;verticalAlign=middle;whiteSpace=wrap;rounded=0;" vertex="1" parent="1">
          <mxGeometry x="-1720" y="662.99" width="60" height="30" as="geometry" />
        </mxCell>
        <mxCell id="6nzBXGpNkiS_T46_idPR-229" value="User.Id;&lt;div&gt;isAuthenticated = true&lt;/div&gt;" style="shape=parallelogram;perimeter=parallelogramPerimeter;whiteSpace=wrap;html=1;fixedSize=1;" vertex="1" parent="1">
          <mxGeometry x="-1780" y="837.99" width="140" height="60" as="geometry" />
        </mxCell>
        <mxCell id="6nzBXGpNkiS_T46_idPR-231" value="Да" style="text;html=1;align=center;verticalAlign=middle;whiteSpace=wrap;rounded=0;" vertex="1" parent="1">
          <mxGeometry x="-1725" y="792.99" width="60" height="30" as="geometry" />
        </mxCell>
        <mxCell id="6nzBXGpNkiS_T46_idPR-232" value="" style="verticalLabelPosition=bottom;verticalAlign=top;html=1;shape=mxgraph.flowchart.on-page_reference;" vertex="1" parent="1">
          <mxGeometry x="-160" y="890" width="60" height="60" as="geometry" />
        </mxCell>
        <mxCell id="6nzBXGpNkiS_T46_idPR-235" value="1" style="text;html=1;align=center;verticalAlign=middle;whiteSpace=wrap;rounded=0;" vertex="1" parent="1">
          <mxGeometry x="-160" y="905" width="60" height="30" as="geometry" />
        </mxCell>
        <mxCell id="6nzBXGpNkiS_T46_idPR-236" value="&quot;Неправильный логин или пароль&quot;" style="strokeWidth=2;html=1;shape=mxgraph.flowchart.display;whiteSpace=wrap;" vertex="1" parent="1">
          <mxGeometry x="-1600" y="592.99" width="100" height="60" as="geometry" />
        </mxCell>
        <mxCell id="6nzBXGpNkiS_T46_idPR-239" value="Нет" style="text;html=1;align=center;verticalAlign=middle;whiteSpace=wrap;rounded=0;" vertex="1" parent="1">
          <mxGeometry x="-1680" y="732.99" width="60" height="30" as="geometry" />
        </mxCell>
        <mxCell id="6nzBXGpNkiS_T46_idPR-240" value="Нет" style="text;html=1;align=center;verticalAlign=middle;whiteSpace=wrap;rounded=0;" vertex="1" parent="1">
          <mxGeometry x="-1680" y="600.99" width="60" height="30" as="geometry" />
        </mxCell>
        <mxCell id="6nzBXGpNkiS_T46_idPR-241" value="" style="endArrow=classic;html=1;rounded=0;exitX=1;exitY=0.5;exitDx=0;exitDy=0;entryX=0.5;entryY=1;entryDx=0;entryDy=0;entryPerimeter=0;" edge="1" parent="1" source="6nzBXGpNkiS_T46_idPR-225" target="6nzBXGpNkiS_T46_idPR-236">
          <mxGeometry width="50" height="50" relative="1" as="geometry">
            <mxPoint x="-1710" y="742.99" as="sourcePoint" />
            <mxPoint x="-1660" y="692.99" as="targetPoint" />
            <Array as="points">
              <mxPoint x="-1550" y="756.99" />
            </Array>
          </mxGeometry>
        </mxCell>
        <mxCell id="6nzBXGpNkiS_T46_idPR-242" value="" style="endArrow=classic;html=1;rounded=0;exitX=0.5;exitY=0;exitDx=0;exitDy=0;exitPerimeter=0;entryX=1;entryY=0.5;entryDx=0;entryDy=0;" edge="1" parent="1" source="6nzBXGpNkiS_T46_idPR-236" target="6nzBXGpNkiS_T46_idPR-215">
          <mxGeometry width="50" height="50" relative="1" as="geometry">
            <mxPoint x="-1710" y="422.99" as="sourcePoint" />
            <mxPoint x="-1660" y="372.99" as="targetPoint" />
            <Array as="points">
              <mxPoint x="-1550" y="79.99" />
            </Array>
          </mxGeometry>
        </mxCell>
        <mxCell id="6nzBXGpNkiS_T46_idPR-243" value="" style="endArrow=classic;html=1;rounded=0;exitX=0;exitY=0.5;exitDx=0;exitDy=0;entryX=1;entryY=0.5;entryDx=0;entryDy=0;" edge="1" parent="1" source="6nzBXGpNkiS_T46_idPR-163" target="6nzBXGpNkiS_T46_idPR-108">
          <mxGeometry width="50" height="50" relative="1" as="geometry">
            <mxPoint x="-870" y="450" as="sourcePoint" />
            <mxPoint x="-820" y="400" as="targetPoint" />
            <Array as="points">
              <mxPoint x="-960" y="380" />
              <mxPoint x="-960" y="202" />
            </Array>
          </mxGeometry>
        </mxCell>
        <mxCell id="6nzBXGpNkiS_T46_idPR-247" value="" style="edgeStyle=orthogonalEdgeStyle;rounded=0;orthogonalLoop=1;jettySize=auto;html=1;" edge="1" parent="1" source="6nzBXGpNkiS_T46_idPR-244" target="6nzBXGpNkiS_T46_idPR-246">
          <mxGeometry relative="1" as="geometry" />
        </mxCell>
        <mxCell id="6nzBXGpNkiS_T46_idPR-244" value="Загружается вкладка &quot;Рестораны&quot;" style="rounded=0;whiteSpace=wrap;html=1;" vertex="1" parent="1">
          <mxGeometry x="-779.49" y="444.87" width="120" height="60" as="geometry" />
        </mxCell>
        <mxCell id="6nzBXGpNkiS_T46_idPR-249" value="" style="edgeStyle=orthogonalEdgeStyle;rounded=0;orthogonalLoop=1;jettySize=auto;html=1;" edge="1" parent="1" source="6nzBXGpNkiS_T46_idPR-246" target="6nzBXGpNkiS_T46_idPR-248">
          <mxGeometry relative="1" as="geometry" />
        </mxCell>
        <mxCell id="6nzBXGpNkiS_T46_idPR-246" value="Открываются Яндекс Карты с расположением кафе &quot;Макдональдс&quot;" style="rounded=0;whiteSpace=wrap;html=1;" vertex="1" parent="1">
          <mxGeometry x="-779.49" y="540.99" width="120" height="60" as="geometry" />
        </mxCell>
        <mxCell id="6nzBXGpNkiS_T46_idPR-248" value="" style="verticalLabelPosition=bottom;verticalAlign=top;html=1;shape=mxgraph.flowchart.on-page_reference;" vertex="1" parent="1">
          <mxGeometry x="-749.49" y="638" width="60" height="60" as="geometry" />
        </mxCell>
        <mxCell id="6nzBXGpNkiS_T46_idPR-250" value="1" style="text;html=1;align=center;verticalAlign=middle;whiteSpace=wrap;rounded=0;" vertex="1" parent="1">
          <mxGeometry x="-749.49" y="652.99" width="60" height="30" as="geometry" />
        </mxCell>
        <mxCell id="6nzBXGpNkiS_T46_idPR-254" value="" style="edgeStyle=orthogonalEdgeStyle;rounded=0;orthogonalLoop=1;jettySize=auto;html=1;" edge="1" parent="1" source="6nzBXGpNkiS_T46_idPR-251" target="6nzBXGpNkiS_T46_idPR-253">
          <mxGeometry relative="1" as="geometry" />
        </mxCell>
        <mxCell id="6nzBXGpNkiS_T46_idPR-251" value="Загружается вкладка &quot;Корзина&quot;" style="rounded=0;whiteSpace=wrap;html=1;" vertex="1" parent="1">
          <mxGeometry x="-619" y="444.87" width="120" height="60" as="geometry" />
        </mxCell>
        <mxCell id="6nzBXGpNkiS_T46_idPR-256" value="" style="edgeStyle=orthogonalEdgeStyle;rounded=0;orthogonalLoop=1;jettySize=auto;html=1;" edge="1" parent="1" source="6nzBXGpNkiS_T46_idPR-253" target="6nzBXGpNkiS_T46_idPR-255">
          <mxGeometry relative="1" as="geometry" />
        </mxCell>
        <mxCell id="6nzBXGpNkiS_T46_idPR-262" value="" style="edgeStyle=orthogonalEdgeStyle;rounded=0;orthogonalLoop=1;jettySize=auto;html=1;" edge="1" parent="1" source="6nzBXGpNkiS_T46_idPR-253" target="6nzBXGpNkiS_T46_idPR-261">
          <mxGeometry relative="1" as="geometry" />
        </mxCell>
        <mxCell id="6nzBXGpNkiS_T46_idPR-253" value="Пользователь авторизован?" style="rhombus;whiteSpace=wrap;html=1;" vertex="1" parent="1">
          <mxGeometry x="-609" y="540.99" width="100" height="107.01" as="geometry" />
        </mxCell>
        <mxCell id="6nzBXGpNkiS_T46_idPR-259" value="" style="edgeStyle=orthogonalEdgeStyle;rounded=0;orthogonalLoop=1;jettySize=auto;html=1;" edge="1" parent="1" source="6nzBXGpNkiS_T46_idPR-255" target="6nzBXGpNkiS_T46_idPR-258">
          <mxGeometry relative="1" as="geometry" />
        </mxCell>
        <mxCell id="6nzBXGpNkiS_T46_idPR-255" value="&quot;Вы не вошли в аккаунт&quot;" style="strokeWidth=2;html=1;shape=mxgraph.flowchart.display;whiteSpace=wrap;" vertex="1" parent="1">
          <mxGeometry x="-468.5" y="559.5" width="110" height="70" as="geometry" />
        </mxCell>
        <mxCell id="6nzBXGpNkiS_T46_idPR-257" value="Нет" style="text;html=1;align=center;verticalAlign=middle;whiteSpace=wrap;rounded=0;" vertex="1" parent="1">
          <mxGeometry x="-528.5" y="570" width="60" height="30" as="geometry" />
        </mxCell>
        <mxCell id="6nzBXGpNkiS_T46_idPR-258" value="" style="verticalLabelPosition=bottom;verticalAlign=top;html=1;shape=mxgraph.flowchart.on-page_reference;" vertex="1" parent="1">
          <mxGeometry x="-443" y="668" width="60" height="60" as="geometry" />
        </mxCell>
        <mxCell id="6nzBXGpNkiS_T46_idPR-260" value="1" style="text;html=1;align=center;verticalAlign=middle;whiteSpace=wrap;rounded=0;" vertex="1" parent="1">
          <mxGeometry x="-443" y="683" width="60" height="30" as="geometry" />
        </mxCell>
        <mxCell id="6nzBXGpNkiS_T46_idPR-264" value="" style="edgeStyle=orthogonalEdgeStyle;rounded=0;orthogonalLoop=1;jettySize=auto;html=1;" edge="1" parent="1" source="6nzBXGpNkiS_T46_idPR-261" target="6nzBXGpNkiS_T46_idPR-263">
          <mxGeometry relative="1" as="geometry" />
        </mxCell>
        <mxCell id="6nzBXGpNkiS_T46_idPR-261" value="User.Id" style="shape=parallelogram;perimeter=parallelogramPerimeter;whiteSpace=wrap;html=1;fixedSize=1;" vertex="1" parent="1">
          <mxGeometry x="-608" y="678" width="99" height="30" as="geometry" />
        </mxCell>
        <mxCell id="6nzBXGpNkiS_T46_idPR-266" value="" style="edgeStyle=orthogonalEdgeStyle;rounded=0;orthogonalLoop=1;jettySize=auto;html=1;" edge="1" parent="1" source="6nzBXGpNkiS_T46_idPR-263" target="6nzBXGpNkiS_T46_idPR-265">
          <mxGeometry relative="1" as="geometry" />
        </mxCell>
        <mxCell id="6nzBXGpNkiS_T46_idPR-263" value="Таблица пользователей" style="shape=cylinder3;whiteSpace=wrap;html=1;boundedLbl=1;backgroundOutline=1;size=15;" vertex="1" parent="1">
          <mxGeometry x="-589" y="742.99" width="60" height="80" as="geometry" />
        </mxCell>
        <mxCell id="6nzBXGpNkiS_T46_idPR-268" value="" style="edgeStyle=orthogonalEdgeStyle;rounded=0;orthogonalLoop=1;jettySize=auto;html=1;" edge="1" parent="1" source="6nzBXGpNkiS_T46_idPR-265" target="6nzBXGpNkiS_T46_idPR-267">
          <mxGeometry relative="1" as="geometry" />
        </mxCell>
        <mxCell id="6nzBXGpNkiS_T46_idPR-265" value="User.Cart" style="shape=parallelogram;perimeter=parallelogramPerimeter;whiteSpace=wrap;html=1;fixedSize=1;" vertex="1" parent="1">
          <mxGeometry x="-604" y="852.99" width="90" height="30" as="geometry" />
        </mxCell>
        <mxCell id="6nzBXGpNkiS_T46_idPR-270" value="" style="edgeStyle=orthogonalEdgeStyle;rounded=0;orthogonalLoop=1;jettySize=auto;html=1;" edge="1" parent="1" source="6nzBXGpNkiS_T46_idPR-267" target="6nzBXGpNkiS_T46_idPR-269">
          <mxGeometry relative="1" as="geometry" />
        </mxCell>
        <mxCell id="6nzBXGpNkiS_T46_idPR-267" value="Отображается корзина пользователя" style="rounded=0;whiteSpace=wrap;html=1;" vertex="1" parent="1">
          <mxGeometry x="-618.5" y="903.55" width="120" height="60" as="geometry" />
        </mxCell>
        <mxCell id="6nzBXGpNkiS_T46_idPR-269" value="" style="verticalLabelPosition=bottom;verticalAlign=top;html=1;shape=mxgraph.flowchart.on-page_reference;" vertex="1" parent="1">
          <mxGeometry x="-450" y="903.55" width="60" height="60" as="geometry" />
        </mxCell>
        <mxCell id="6nzBXGpNkiS_T46_idPR-271" value="1" style="text;html=1;align=center;verticalAlign=middle;whiteSpace=wrap;rounded=0;" vertex="1" parent="1">
          <mxGeometry x="-449" y="917.55" width="60" height="30" as="geometry" />
        </mxCell>
        <mxCell id="6nzBXGpNkiS_T46_idPR-272" value="" style="verticalLabelPosition=bottom;verticalAlign=top;html=1;shape=mxgraph.flowchart.on-page_reference;" vertex="1" parent="1">
          <mxGeometry x="-429.49" y="445" width="60" height="60" as="geometry" />
        </mxCell>
        <mxCell id="6nzBXGpNkiS_T46_idPR-274" value="4" style="text;html=1;align=center;verticalAlign=middle;whiteSpace=wrap;rounded=0;" vertex="1" parent="1">
          <mxGeometry x="-429.49" y="462.3" width="60" height="30" as="geometry" />
        </mxCell>
        <mxCell id="6nzBXGpNkiS_T46_idPR-276" value="" style="verticalLabelPosition=bottom;verticalAlign=top;html=1;shape=mxgraph.flowchart.on-page_reference;" vertex="1" parent="1">
          <mxGeometry x="-2046.9599999999998" y="887.48" width="60" height="60" as="geometry" />
        </mxCell>
        <mxCell id="6nzBXGpNkiS_T46_idPR-280" value="" style="edgeStyle=orthogonalEdgeStyle;rounded=0;orthogonalLoop=1;jettySize=auto;html=1;exitX=0.5;exitY=1;exitDx=0;exitDy=0;exitPerimeter=0;" edge="1" parent="1" source="6nzBXGpNkiS_T46_idPR-276" target="6nzBXGpNkiS_T46_idPR-279">
          <mxGeometry relative="1" as="geometry">
            <mxPoint x="-2017" y="950" as="sourcePoint" />
          </mxGeometry>
        </mxCell>
        <mxCell id="6nzBXGpNkiS_T46_idPR-277" value="4" style="text;html=1;align=center;verticalAlign=middle;whiteSpace=wrap;rounded=0;" vertex="1" parent="1">
          <mxGeometry x="-2046.96" y="905" width="60" height="30" as="geometry" />
        </mxCell>
        <mxCell id="6nzBXGpNkiS_T46_idPR-282" value="" style="edgeStyle=orthogonalEdgeStyle;rounded=0;orthogonalLoop=1;jettySize=auto;html=1;" edge="1" parent="1" source="6nzBXGpNkiS_T46_idPR-279" target="6nzBXGpNkiS_T46_idPR-281">
          <mxGeometry relative="1" as="geometry" />
        </mxCell>
        <mxCell id="6nzBXGpNkiS_T46_idPR-279" value="Загружается вкладка &quot;История заказов&quot;" style="rounded=0;whiteSpace=wrap;html=1;" vertex="1" parent="1">
          <mxGeometry x="-2076.96" y="985" width="120" height="60" as="geometry" />
        </mxCell>
        <mxCell id="6nzBXGpNkiS_T46_idPR-298" value="" style="edgeStyle=orthogonalEdgeStyle;rounded=0;orthogonalLoop=1;jettySize=auto;html=1;" edge="1" parent="1" source="6nzBXGpNkiS_T46_idPR-281" target="6nzBXGpNkiS_T46_idPR-291">
          <mxGeometry relative="1" as="geometry" />
        </mxCell>
        <mxCell id="6nzBXGpNkiS_T46_idPR-281" value="Пользователь авторизован?" style="rhombus;whiteSpace=wrap;html=1;" vertex="1" parent="1">
          <mxGeometry x="-2066.96" y="1084.06" width="100" height="100" as="geometry" />
        </mxCell>
        <mxCell id="6nzBXGpNkiS_T46_idPR-283" value="&quot;Вы не вошли в аккаунт&quot;" style="strokeWidth=2;html=1;shape=mxgraph.flowchart.display;whiteSpace=wrap;" vertex="1" parent="1">
          <mxGeometry x="-1926.96" y="1099.48" width="110" height="70" as="geometry" />
        </mxCell>
        <mxCell id="6nzBXGpNkiS_T46_idPR-284" value="Нет" style="text;html=1;align=center;verticalAlign=middle;whiteSpace=wrap;rounded=0;" vertex="1" parent="1">
          <mxGeometry x="-1986.96" y="1108.98" width="60" height="30" as="geometry" />
        </mxCell>
        <mxCell id="6nzBXGpNkiS_T46_idPR-287" value="" style="verticalLabelPosition=bottom;verticalAlign=top;html=1;shape=mxgraph.flowchart.on-page_reference;" vertex="1" parent="1">
          <mxGeometry x="-1901.96" y="1206.98" width="60" height="60" as="geometry" />
        </mxCell>
        <mxCell id="6nzBXGpNkiS_T46_idPR-285" value="1" style="text;html=1;align=center;verticalAlign=middle;whiteSpace=wrap;rounded=0;" vertex="1" parent="1">
          <mxGeometry x="-1901.46" y="1221.98" width="60" height="30" as="geometry" />
        </mxCell>
        <mxCell id="6nzBXGpNkiS_T46_idPR-286" value="" style="endArrow=classic;html=1;rounded=0;exitX=1;exitY=0.5;exitDx=0;exitDy=0;entryX=0;entryY=0.5;entryDx=0;entryDy=0;entryPerimeter=0;" edge="1" parent="1" source="6nzBXGpNkiS_T46_idPR-281" target="6nzBXGpNkiS_T46_idPR-283">
          <mxGeometry width="50" height="50" relative="1" as="geometry">
            <mxPoint x="-1870" y="1080" as="sourcePoint" />
            <mxPoint x="-1820" y="1030" as="targetPoint" />
          </mxGeometry>
        </mxCell>
        <mxCell id="6nzBXGpNkiS_T46_idPR-289" value="" style="endArrow=classic;html=1;rounded=0;exitX=0.5;exitY=1;exitDx=0;exitDy=0;exitPerimeter=0;entryX=0.5;entryY=0;entryDx=0;entryDy=0;entryPerimeter=0;" edge="1" parent="1" source="6nzBXGpNkiS_T46_idPR-283" target="6nzBXGpNkiS_T46_idPR-287">
          <mxGeometry width="50" height="50" relative="1" as="geometry">
            <mxPoint x="-1870" y="1080" as="sourcePoint" />
            <mxPoint x="-1820" y="1030" as="targetPoint" />
          </mxGeometry>
        </mxCell>
        <mxCell id="6nzBXGpNkiS_T46_idPR-290" value="" style="edgeStyle=orthogonalEdgeStyle;rounded=0;orthogonalLoop=1;jettySize=auto;html=1;" edge="1" parent="1" source="6nzBXGpNkiS_T46_idPR-291" target="6nzBXGpNkiS_T46_idPR-292">
          <mxGeometry relative="1" as="geometry" />
        </mxCell>
        <mxCell id="6nzBXGpNkiS_T46_idPR-291" value="User.Id" style="shape=parallelogram;perimeter=parallelogramPerimeter;whiteSpace=wrap;html=1;fixedSize=1;" vertex="1" parent="1">
          <mxGeometry x="-2065.96" y="1206.98" width="99" height="30" as="geometry" />
        </mxCell>
        <mxCell id="6nzBXGpNkiS_T46_idPR-299" value="" style="edgeStyle=orthogonalEdgeStyle;rounded=0;orthogonalLoop=1;jettySize=auto;html=1;entryX=0.5;entryY=0;entryDx=0;entryDy=0;" edge="1" parent="1" source="6nzBXGpNkiS_T46_idPR-292" target="6nzBXGpNkiS_T46_idPR-293">
          <mxGeometry relative="1" as="geometry" />
        </mxCell>
        <mxCell id="6nzBXGpNkiS_T46_idPR-292" value="Таблица пользователей" style="shape=cylinder3;whiteSpace=wrap;html=1;boundedLbl=1;backgroundOutline=1;size=15;" vertex="1" parent="1">
          <mxGeometry x="-2046.96" y="1273.29" width="60" height="80" as="geometry" />
        </mxCell>
        <mxCell id="6nzBXGpNkiS_T46_idPR-300" value="" style="edgeStyle=orthogonalEdgeStyle;rounded=0;orthogonalLoop=1;jettySize=auto;html=1;" edge="1" parent="1" source="6nzBXGpNkiS_T46_idPR-293" target="6nzBXGpNkiS_T46_idPR-295">
          <mxGeometry relative="1" as="geometry" />
        </mxCell>
        <mxCell id="6nzBXGpNkiS_T46_idPR-293" value="User.History" style="shape=parallelogram;perimeter=parallelogramPerimeter;whiteSpace=wrap;html=1;fixedSize=1;" vertex="1" parent="1">
          <mxGeometry x="-2061.96" y="1380.3700000000001" width="90" height="30" as="geometry" />
        </mxCell>
        <mxCell id="6nzBXGpNkiS_T46_idPR-294" value="" style="edgeStyle=orthogonalEdgeStyle;rounded=0;orthogonalLoop=1;jettySize=auto;html=1;" edge="1" parent="1" source="6nzBXGpNkiS_T46_idPR-295" target="6nzBXGpNkiS_T46_idPR-296">
          <mxGeometry relative="1" as="geometry" />
        </mxCell>
        <mxCell id="6nzBXGpNkiS_T46_idPR-295" value="Отображается корзина пользователя" style="rounded=0;whiteSpace=wrap;html=1;" vertex="1" parent="1">
          <mxGeometry x="-2076.46" y="1440.76" width="120" height="60" as="geometry" />
        </mxCell>
        <mxCell id="6nzBXGpNkiS_T46_idPR-296" value="" style="verticalLabelPosition=bottom;verticalAlign=top;html=1;shape=mxgraph.flowchart.on-page_reference;" vertex="1" parent="1">
          <mxGeometry x="-1916.96" y="1440.76" width="60" height="60" as="geometry" />
        </mxCell>
        <mxCell id="6nzBXGpNkiS_T46_idPR-297" value="1" style="text;html=1;align=center;verticalAlign=middle;whiteSpace=wrap;rounded=0;" vertex="1" parent="1">
          <mxGeometry x="-1916.96" y="1455.76" width="60" height="30" as="geometry" />
        </mxCell>
      </root>
    </mxGraphModel>
  </diagram>
</mxfile>
